<?xml version="1.0" encoding="UTF-8" standalone="no"?>
<!DOCTYPE svg PUBLIC "-//W3C//DTD SVG 1.1//EN"
 "http://www.w3.org/Graphics/SVG/1.1/DTD/svg11.dtd">
<!-- Generated by graphviz version 2.30.1 (20180420.1509)
 -->
<!-- Title: snakemake_dag Pages: 1 -->
<svg width="4309pt" height="548pt"
 viewBox="0.00 0.00 4309.00 548.00" xmlns="http://www.w3.org/2000/svg" xmlns:xlink="http://www.w3.org/1999/xlink">
<g id="graph0" class="graph" transform="scale(1 1) rotate(0) translate(4 544)">
<title>snakemake_dag</title>
<polygon fill="white" stroke="white" points="-4,5 -4,-544 4306,-544 4306,5 -4,5"/>
<!-- 0 -->
<g id="node1" class="node"><title>0</title>
<path fill="none" stroke="#5682d8" stroke-width="2" d="M2189.25,-36C2189.25,-36 2110.75,-36 2110.75,-36 2104.75,-36 2098.75,-30 2098.75,-24 2098.75,-24 2098.75,-12 2098.75,-12 2098.75,-6 2104.75,-0 2110.75,-0 2110.75,-0 2189.25,-0 2189.25,-0 2195.25,-0 2201.25,-6 2201.25,-12 2201.25,-12 2201.25,-24 2201.25,-24 2201.25,-30 2195.25,-36 2189.25,-36"/>
<text text-anchor="middle" x="2150" y="-15.5" font-family="sans" font-size="10.00">plot_volcano_plot</text>
</g>
<!-- 1 -->
<g id="node2" class="node"><title>1</title>
<path fill="none" stroke="#ced856" stroke-width="2" d="M104.25,-108C104.25,-108 11.75,-108 11.75,-108 5.75,-108 -0.25,-102 -0.25,-96 -0.25,-96 -0.25,-84 -0.25,-84 -0.25,-78 5.75,-72 11.75,-72 11.75,-72 104.25,-72 104.25,-72 110.25,-72 116.25,-78 116.25,-84 116.25,-84 116.25,-96 116.25,-96 116.25,-102 110.25,-108 104.25,-108"/>
<text text-anchor="middle" x="58" y="-93" font-family="sans" font-size="10.00">run_epistasis_model</text>
<text text-anchor="middle" x="58" y="-82" font-family="sans" font-size="10.00">split: 1</text>
</g>
<!-- 1&#45;&gt;0 -->
<g id="edge1" class="edge"><title>1&#45;&gt;0</title>
<path fill="none" stroke="grey" stroke-width="2" d="M116.314,-73.3917C119.24,-72.864 122.147,-72.3943 125,-72 518.351,-17.6401 1793.46,-17.9429 2088.61,-18.7697"/>
<polygon fill="grey" stroke="grey" points="2088.69,-22.2698 2098.7,-18.7992 2088.71,-15.2698 2088.69,-22.2698"/>
</g>
<!-- 2 -->
<g id="node3" class="node"><title>2</title>
<path fill="none" stroke="#9fd856" stroke-width="2" d="M2195,-180C2195,-180 2105,-180 2105,-180 2099,-180 2093,-174 2093,-168 2093,-168 2093,-156 2093,-156 2093,-150 2099,-144 2105,-144 2105,-144 2195,-144 2195,-144 2201,-144 2207,-150 2207,-156 2207,-156 2207,-168 2207,-168 2207,-174 2201,-180 2195,-180"/>
<text text-anchor="middle" x="2150" y="-159.5" font-family="sans" font-size="10.00">find_enhancer_pairs</text>
</g>
<!-- 2&#45;&gt;1 -->
<g id="edge33" class="edge"><title>2&#45;&gt;1</title>
<path fill="none" stroke="grey" stroke-width="2" d="M2092.68,-161.219C1807.68,-162.046 540.828,-162.604 126.247,-107.951"/>
<polygon fill="grey" stroke="grey" points="126.693,-104.48 116.314,-106.608 125.755,-111.417 126.693,-104.48"/>
</g>
<!-- 41 -->
<g id="node42" class="node"><title>41</title>
<path fill="none" stroke="#ced856" stroke-width="2" d="M239.25,-108C239.25,-108 146.75,-108 146.75,-108 140.75,-108 134.75,-102 134.75,-96 134.75,-96 134.75,-84 134.75,-84 134.75,-78 140.75,-72 146.75,-72 146.75,-72 239.25,-72 239.25,-72 245.25,-72 251.25,-78 251.25,-84 251.25,-84 251.25,-96 251.25,-96 251.25,-102 245.25,-108 239.25,-108"/>
<text text-anchor="middle" x="193" y="-93" font-family="sans" font-size="10.00">run_epistasis_model</text>
<text text-anchor="middle" x="193" y="-82" font-family="sans" font-size="10.00">split: 2</text>
</g>
<!-- 2&#45;&gt;41 -->
<g id="edge104" class="edge"><title>2&#45;&gt;41</title>
<path fill="none" stroke="grey" stroke-width="2" d="M2092.9,-161.094C1820.19,-161.283 648.042,-159.132 261.414,-107.974"/>
<polygon fill="grey" stroke="grey" points="261.696,-104.48 251.315,-106.602 260.753,-111.417 261.696,-104.48"/>
</g>
<!-- 42 -->
<g id="node43" class="node"><title>42</title>
<path fill="none" stroke="#ced856" stroke-width="2" d="M374.25,-108C374.25,-108 281.75,-108 281.75,-108 275.75,-108 269.75,-102 269.75,-96 269.75,-96 269.75,-84 269.75,-84 269.75,-78 275.75,-72 281.75,-72 281.75,-72 374.25,-72 374.25,-72 380.25,-72 386.25,-78 386.25,-84 386.25,-84 386.25,-96 386.25,-96 386.25,-102 380.25,-108 374.25,-108"/>
<text text-anchor="middle" x="328" y="-93" font-family="sans" font-size="10.00">run_epistasis_model</text>
<text text-anchor="middle" x="328" y="-82" font-family="sans" font-size="10.00">split: 3</text>
</g>
<!-- 2&#45;&gt;42 -->
<g id="edge105" class="edge"><title>2&#45;&gt;42</title>
<path fill="none" stroke="grey" stroke-width="2" d="M2092.66,-160.95C1831.79,-160.465 754.821,-155.643 396.451,-107.981"/>
<polygon fill="grey" stroke="grey" points="396.698,-104.482 386.316,-106.594 395.75,-111.417 396.698,-104.482"/>
</g>
<!-- 43 -->
<g id="node44" class="node"><title>43</title>
<path fill="none" stroke="#ced856" stroke-width="2" d="M509.25,-108C509.25,-108 416.75,-108 416.75,-108 410.75,-108 404.75,-102 404.75,-96 404.75,-96 404.75,-84 404.75,-84 404.75,-78 410.75,-72 416.75,-72 416.75,-72 509.25,-72 509.25,-72 515.25,-72 521.25,-78 521.25,-84 521.25,-84 521.25,-96 521.25,-96 521.25,-102 515.25,-108 509.25,-108"/>
<text text-anchor="middle" x="463" y="-93" font-family="sans" font-size="10.00">run_epistasis_model</text>
<text text-anchor="middle" x="463" y="-82" font-family="sans" font-size="10.00">split: 4</text>
</g>
<!-- 2&#45;&gt;43 -->
<g id="edge106" class="edge"><title>2&#45;&gt;43</title>
<path fill="none" stroke="grey" stroke-width="2" d="M2092.94,-160.783C1845.28,-159.59 861.648,-152.196 531.371,-107.972"/>
<polygon fill="grey" stroke="grey" points="531.702,-104.484 521.318,-106.585 530.746,-111.419 531.702,-104.484"/>
</g>
<!-- 44 -->
<g id="node45" class="node"><title>44</title>
<path fill="none" stroke="#ced856" stroke-width="2" d="M644.25,-108C644.25,-108 551.75,-108 551.75,-108 545.75,-108 539.75,-102 539.75,-96 539.75,-96 539.75,-84 539.75,-84 539.75,-78 545.75,-72 551.75,-72 551.75,-72 644.25,-72 644.25,-72 650.25,-72 656.25,-78 656.25,-84 656.25,-84 656.25,-96 656.25,-96 656.25,-102 650.25,-108 644.25,-108"/>
<text text-anchor="middle" x="598" y="-93" font-family="sans" font-size="10.00">run_epistasis_model</text>
<text text-anchor="middle" x="598" y="-82" font-family="sans" font-size="10.00">split: 5</text>
</g>
<!-- 2&#45;&gt;44 -->
<g id="edge107" class="edge"><title>2&#45;&gt;44</title>
<path fill="none" stroke="grey" stroke-width="2" d="M2092.98,-160.586C1858.68,-158.638 968.612,-148.752 666.388,-107.976"/>
<polygon fill="grey" stroke="grey" points="666.706,-104.487 656.319,-106.575 665.741,-111.42 666.706,-104.487"/>
</g>
<!-- 45 -->
<g id="node46" class="node"><title>45</title>
<path fill="none" stroke="#ced856" stroke-width="2" d="M779.25,-108C779.25,-108 686.75,-108 686.75,-108 680.75,-108 674.75,-102 674.75,-96 674.75,-96 674.75,-84 674.75,-84 674.75,-78 680.75,-72 686.75,-72 686.75,-72 779.25,-72 779.25,-72 785.25,-72 791.25,-78 791.25,-84 791.25,-84 791.25,-96 791.25,-96 791.25,-102 785.25,-108 779.25,-108"/>
<text text-anchor="middle" x="733" y="-93" font-family="sans" font-size="10.00">run_epistasis_model</text>
<text text-anchor="middle" x="733" y="-82" font-family="sans" font-size="10.00">split: 6</text>
</g>
<!-- 2&#45;&gt;45 -->
<g id="edge108" class="edge"><title>2&#45;&gt;45</title>
<path fill="none" stroke="grey" stroke-width="2" d="M2092.95,-160.35C1872.47,-157.594 1075.28,-145.316 801.239,-107.959"/>
<polygon fill="grey" stroke="grey" points="801.711,-104.491 791.321,-106.562 800.735,-111.423 801.711,-104.491"/>
</g>
<!-- 46 -->
<g id="node47" class="node"><title>46</title>
<path fill="none" stroke="#ced856" stroke-width="2" d="M914.25,-108C914.25,-108 821.75,-108 821.75,-108 815.75,-108 809.75,-102 809.75,-96 809.75,-96 809.75,-84 809.75,-84 809.75,-78 815.75,-72 821.75,-72 821.75,-72 914.25,-72 914.25,-72 920.25,-72 926.25,-78 926.25,-84 926.25,-84 926.25,-96 926.25,-96 926.25,-102 920.25,-108 914.25,-108"/>
<text text-anchor="middle" x="868" y="-93" font-family="sans" font-size="10.00">run_epistasis_model</text>
<text text-anchor="middle" x="868" y="-82" font-family="sans" font-size="10.00">split: 7</text>
</g>
<!-- 2&#45;&gt;46 -->
<g id="edge109" class="edge"><title>2&#45;&gt;46</title>
<path fill="none" stroke="grey" stroke-width="2" d="M2092.69,-160.057C1886.52,-156.426 1182.31,-141.895 936.287,-107.969"/>
<polygon fill="grey" stroke="grey" points="936.717,-104.495 926.323,-106.547 935.728,-111.425 936.717,-104.495"/>
</g>
<!-- 47 -->
<g id="node48" class="node"><title>47</title>
<path fill="none" stroke="#ced856" stroke-width="2" d="M1049.25,-108C1049.25,-108 956.75,-108 956.75,-108 950.75,-108 944.75,-102 944.75,-96 944.75,-96 944.75,-84 944.75,-84 944.75,-78 950.75,-72 956.75,-72 956.75,-72 1049.25,-72 1049.25,-72 1055.25,-72 1061.25,-78 1061.25,-84 1061.25,-84 1061.25,-96 1061.25,-96 1061.25,-102 1055.25,-108 1049.25,-108"/>
<text text-anchor="middle" x="1003" y="-93" font-family="sans" font-size="10.00">run_epistasis_model</text>
<text text-anchor="middle" x="1003" y="-82" font-family="sans" font-size="10.00">split: 8</text>
</g>
<!-- 2&#45;&gt;47 -->
<g id="edge110" class="edge"><title>2&#45;&gt;47</title>
<path fill="none" stroke="grey" stroke-width="2" d="M2092.82,-159.699C1902.36,-155.135 1289.71,-138.527 1071.42,-107.993"/>
<polygon fill="grey" stroke="grey" points="1071.72,-104.5 1061.33,-106.528 1070.72,-111.428 1071.72,-104.5"/>
</g>
<!-- 48 -->
<g id="node49" class="node"><title>48</title>
<path fill="none" stroke="#ced856" stroke-width="2" d="M1184.25,-108C1184.25,-108 1091.75,-108 1091.75,-108 1085.75,-108 1079.75,-102 1079.75,-96 1079.75,-96 1079.75,-84 1079.75,-84 1079.75,-78 1085.75,-72 1091.75,-72 1091.75,-72 1184.25,-72 1184.25,-72 1190.25,-72 1196.25,-78 1196.25,-84 1196.25,-84 1196.25,-96 1196.25,-96 1196.25,-102 1190.25,-108 1184.25,-108"/>
<text text-anchor="middle" x="1138" y="-93" font-family="sans" font-size="10.00">run_epistasis_model</text>
<text text-anchor="middle" x="1138" y="-82" font-family="sans" font-size="10.00">split: 9</text>
</g>
<!-- 2&#45;&gt;48 -->
<g id="edge111" class="edge"><title>2&#45;&gt;48</title>
<path fill="none" stroke="grey" stroke-width="2" d="M2092.88,-161.607C1946.57,-162.347 1546.48,-159.246 1206.37,-108.033"/>
<polygon fill="grey" stroke="grey" points="1206.74,-104.549 1196.33,-106.503 1205.69,-111.469 1206.74,-104.549"/>
</g>
<!-- 49 -->
<g id="node50" class="node"><title>49</title>
<path fill="none" stroke="#ced856" stroke-width="2" d="M1319.25,-108C1319.25,-108 1226.75,-108 1226.75,-108 1220.75,-108 1214.75,-102 1214.75,-96 1214.75,-96 1214.75,-84 1214.75,-84 1214.75,-78 1220.75,-72 1226.75,-72 1226.75,-72 1319.25,-72 1319.25,-72 1325.25,-72 1331.25,-78 1331.25,-84 1331.25,-84 1331.25,-96 1331.25,-96 1331.25,-102 1325.25,-108 1319.25,-108"/>
<text text-anchor="middle" x="1273" y="-93" font-family="sans" font-size="10.00">run_epistasis_model</text>
<text text-anchor="middle" x="1273" y="-82" font-family="sans" font-size="10.00">split: 10</text>
</g>
<!-- 2&#45;&gt;49 -->
<g id="edge112" class="edge"><title>2&#45;&gt;49</title>
<path fill="none" stroke="grey" stroke-width="2" d="M2092.64,-160.842C1961.12,-159.707 1627.72,-152.438 1341.5,-108.065"/>
<polygon fill="grey" stroke="grey" points="1341.76,-104.563 1331.33,-106.471 1340.67,-111.479 1341.76,-104.563"/>
</g>
<!-- 50 -->
<g id="node51" class="node"><title>50</title>
<path fill="none" stroke="#ced856" stroke-width="2" d="M1454.25,-108C1454.25,-108 1361.75,-108 1361.75,-108 1355.75,-108 1349.75,-102 1349.75,-96 1349.75,-96 1349.75,-84 1349.75,-84 1349.75,-78 1355.75,-72 1361.75,-72 1361.75,-72 1454.25,-72 1454.25,-72 1460.25,-72 1466.25,-78 1466.25,-84 1466.25,-84 1466.25,-96 1466.25,-96 1466.25,-102 1460.25,-108 1454.25,-108"/>
<text text-anchor="middle" x="1408" y="-93" font-family="sans" font-size="10.00">run_epistasis_model</text>
<text text-anchor="middle" x="1408" y="-82" font-family="sans" font-size="10.00">split: 11</text>
</g>
<!-- 2&#45;&gt;50 -->
<g id="edge113" class="edge"><title>2&#45;&gt;50</title>
<path fill="none" stroke="grey" stroke-width="2" d="M2092.71,-159.783C1977.48,-156.627 1709.48,-145.704 1476.36,-108.064"/>
<polygon fill="grey" stroke="grey" points="1476.78,-104.585 1466.34,-106.425 1475.65,-111.493 1476.78,-104.585"/>
</g>
<!-- 51 -->
<g id="node52" class="node"><title>51</title>
<path fill="none" stroke="#ced856" stroke-width="2" d="M1589.25,-108C1589.25,-108 1496.75,-108 1496.75,-108 1490.75,-108 1484.75,-102 1484.75,-96 1484.75,-96 1484.75,-84 1484.75,-84 1484.75,-78 1490.75,-72 1496.75,-72 1496.75,-72 1589.25,-72 1589.25,-72 1595.25,-72 1601.25,-78 1601.25,-84 1601.25,-84 1601.25,-96 1601.25,-96 1601.25,-102 1595.25,-108 1589.25,-108"/>
<text text-anchor="middle" x="1543" y="-93" font-family="sans" font-size="10.00">run_epistasis_model</text>
<text text-anchor="middle" x="1543" y="-82" font-family="sans" font-size="10.00">split: 12</text>
</g>
<!-- 2&#45;&gt;51 -->
<g id="edge114" class="edge"><title>2&#45;&gt;51</title>
<path fill="none" stroke="grey" stroke-width="2" d="M2092.86,-158.227C1995.69,-152.892 1791.98,-139.026 1611.3,-108.082"/>
<polygon fill="grey" stroke="grey" points="1611.8,-104.617 1601.35,-106.357 1610.61,-111.515 1611.8,-104.617"/>
</g>
<!-- 52 -->
<g id="node53" class="node"><title>52</title>
<path fill="none" stroke="#ced856" stroke-width="2" d="M1724.25,-108C1724.25,-108 1631.75,-108 1631.75,-108 1625.75,-108 1619.75,-102 1619.75,-96 1619.75,-96 1619.75,-84 1619.75,-84 1619.75,-78 1625.75,-72 1631.75,-72 1631.75,-72 1724.25,-72 1724.25,-72 1730.25,-72 1736.25,-78 1736.25,-84 1736.25,-84 1736.25,-96 1736.25,-96 1736.25,-102 1730.25,-108 1724.25,-108"/>
<text text-anchor="middle" x="1678" y="-93" font-family="sans" font-size="10.00">run_epistasis_model</text>
<text text-anchor="middle" x="1678" y="-82" font-family="sans" font-size="10.00">split: 13</text>
</g>
<!-- 2&#45;&gt;52 -->
<g id="edge115" class="edge"><title>2&#45;&gt;52</title>
<path fill="none" stroke="grey" stroke-width="2" d="M2092.98,-155.688C2016.27,-148.066 1875.48,-132.407 1746.43,-108.157"/>
<polygon fill="grey" stroke="grey" points="1746.85,-104.674 1736.37,-106.244 1745.54,-111.551 1746.85,-104.674"/>
</g>
<!-- 53 -->
<g id="node54" class="node"><title>53</title>
<path fill="none" stroke="#ced856" stroke-width="2" d="M1859.25,-108C1859.25,-108 1766.75,-108 1766.75,-108 1760.75,-108 1754.75,-102 1754.75,-96 1754.75,-96 1754.75,-84 1754.75,-84 1754.75,-78 1760.75,-72 1766.75,-72 1766.75,-72 1859.25,-72 1859.25,-72 1865.25,-72 1871.25,-78 1871.25,-84 1871.25,-84 1871.25,-96 1871.25,-96 1871.25,-102 1865.25,-108 1859.25,-108"/>
<text text-anchor="middle" x="1813" y="-93" font-family="sans" font-size="10.00">run_epistasis_model</text>
<text text-anchor="middle" x="1813" y="-82" font-family="sans" font-size="10.00">split: 14</text>
</g>
<!-- 2&#45;&gt;53 -->
<g id="edge116" class="edge"><title>2&#45;&gt;53</title>
<path fill="none" stroke="grey" stroke-width="2" d="M2092.92,-150.733C2040.39,-141.072 1960.09,-125.771 1881.49,-108.279"/>
<polygon fill="grey" stroke="grey" points="1881.94,-104.793 1871.42,-106.023 1880.41,-111.624 1881.94,-104.793"/>
</g>
<!-- 54 -->
<g id="node55" class="node"><title>54</title>
<path fill="none" stroke="#ced856" stroke-width="2" d="M1994.25,-108C1994.25,-108 1901.75,-108 1901.75,-108 1895.75,-108 1889.75,-102 1889.75,-96 1889.75,-96 1889.75,-84 1889.75,-84 1889.75,-78 1895.75,-72 1901.75,-72 1901.75,-72 1994.25,-72 1994.25,-72 2000.25,-72 2006.25,-78 2006.25,-84 2006.25,-84 2006.25,-96 2006.25,-96 2006.25,-102 2000.25,-108 1994.25,-108"/>
<text text-anchor="middle" x="1948" y="-93" font-family="sans" font-size="10.00">run_epistasis_model</text>
<text text-anchor="middle" x="1948" y="-82" font-family="sans" font-size="10.00">split: 15</text>
</g>
<!-- 2&#45;&gt;54 -->
<g id="edge117" class="edge"><title>2&#45;&gt;54</title>
<path fill="none" stroke="grey" stroke-width="2" d="M2100.84,-143.966C2072.5,-134.142 2036.68,-121.729 2006.84,-111.389"/>
<polygon fill="grey" stroke="grey" points="2007.97,-108.078 1997.38,-108.111 2005.68,-114.692 2007.97,-108.078"/>
</g>
<!-- 55 -->
<g id="node56" class="node"><title>55</title>
<path fill="none" stroke="#ced856" stroke-width="2" d="M2129.25,-108C2129.25,-108 2036.75,-108 2036.75,-108 2030.75,-108 2024.75,-102 2024.75,-96 2024.75,-96 2024.75,-84 2024.75,-84 2024.75,-78 2030.75,-72 2036.75,-72 2036.75,-72 2129.25,-72 2129.25,-72 2135.25,-72 2141.25,-78 2141.25,-84 2141.25,-84 2141.25,-96 2141.25,-96 2141.25,-102 2135.25,-108 2129.25,-108"/>
<text text-anchor="middle" x="2083" y="-93" font-family="sans" font-size="10.00">run_epistasis_model</text>
<text text-anchor="middle" x="2083" y="-82" font-family="sans" font-size="10.00">split: 16</text>
</g>
<!-- 2&#45;&gt;55 -->
<g id="edge118" class="edge"><title>2&#45;&gt;55</title>
<path fill="none" stroke="grey" stroke-width="2" d="M2133.44,-143.697C2125.32,-135.22 2115.41,-124.864 2106.53,-115.583"/>
<polygon fill="grey" stroke="grey" points="2108.81,-112.908 2099.37,-108.104 2103.76,-117.749 2108.81,-112.908"/>
</g>
<!-- 56 -->
<g id="node57" class="node"><title>56</title>
<path fill="none" stroke="#ced856" stroke-width="2" d="M2264.25,-108C2264.25,-108 2171.75,-108 2171.75,-108 2165.75,-108 2159.75,-102 2159.75,-96 2159.75,-96 2159.75,-84 2159.75,-84 2159.75,-78 2165.75,-72 2171.75,-72 2171.75,-72 2264.25,-72 2264.25,-72 2270.25,-72 2276.25,-78 2276.25,-84 2276.25,-84 2276.25,-96 2276.25,-96 2276.25,-102 2270.25,-108 2264.25,-108"/>
<text text-anchor="middle" x="2218" y="-93" font-family="sans" font-size="10.00">run_epistasis_model</text>
<text text-anchor="middle" x="2218" y="-82" font-family="sans" font-size="10.00">split: 17</text>
</g>
<!-- 2&#45;&gt;56 -->
<g id="edge119" class="edge"><title>2&#45;&gt;56</title>
<path fill="none" stroke="grey" stroke-width="2" d="M2166.81,-143.697C2175.13,-135.135 2185.31,-124.656 2194.39,-115.304"/>
<polygon fill="grey" stroke="grey" points="2196.93,-117.716 2201.38,-108.104 2191.91,-112.838 2196.93,-117.716"/>
</g>
<!-- 57 -->
<g id="node58" class="node"><title>57</title>
<path fill="none" stroke="#ced856" stroke-width="2" d="M2399.25,-108C2399.25,-108 2306.75,-108 2306.75,-108 2300.75,-108 2294.75,-102 2294.75,-96 2294.75,-96 2294.75,-84 2294.75,-84 2294.75,-78 2300.75,-72 2306.75,-72 2306.75,-72 2399.25,-72 2399.25,-72 2405.25,-72 2411.25,-78 2411.25,-84 2411.25,-84 2411.25,-96 2411.25,-96 2411.25,-102 2405.25,-108 2399.25,-108"/>
<text text-anchor="middle" x="2353" y="-93" font-family="sans" font-size="10.00">run_epistasis_model</text>
<text text-anchor="middle" x="2353" y="-82" font-family="sans" font-size="10.00">split: 18</text>
</g>
<!-- 2&#45;&gt;57 -->
<g id="edge120" class="edge"><title>2&#45;&gt;57</title>
<path fill="none" stroke="grey" stroke-width="2" d="M2199.4,-143.966C2227.89,-134.142 2263.89,-121.729 2293.87,-111.389"/>
<polygon fill="grey" stroke="grey" points="2295.07,-114.68 2303.38,-108.111 2292.78,-108.062 2295.07,-114.68"/>
</g>
<!-- 58 -->
<g id="node59" class="node"><title>58</title>
<path fill="none" stroke="#ced856" stroke-width="2" d="M2534.25,-108C2534.25,-108 2441.75,-108 2441.75,-108 2435.75,-108 2429.75,-102 2429.75,-96 2429.75,-96 2429.75,-84 2429.75,-84 2429.75,-78 2435.75,-72 2441.75,-72 2441.75,-72 2534.25,-72 2534.25,-72 2540.25,-72 2546.25,-78 2546.25,-84 2546.25,-84 2546.25,-96 2546.25,-96 2546.25,-102 2540.25,-108 2534.25,-108"/>
<text text-anchor="middle" x="2488" y="-93" font-family="sans" font-size="10.00">run_epistasis_model</text>
<text text-anchor="middle" x="2488" y="-82" font-family="sans" font-size="10.00">split: 19</text>
</g>
<!-- 2&#45;&gt;58 -->
<g id="edge121" class="edge"><title>2&#45;&gt;58</title>
<path fill="none" stroke="grey" stroke-width="2" d="M2207.06,-150.675C2259.59,-140.974 2339.88,-125.645 2419.26,-108.104"/>
<polygon fill="grey" stroke="grey" points="2420.44,-111.429 2429.44,-105.842 2418.92,-104.595 2420.44,-111.429"/>
</g>
<!-- 59 -->
<g id="node60" class="node"><title>59</title>
<path fill="none" stroke="#ced856" stroke-width="2" d="M2669.25,-108C2669.25,-108 2576.75,-108 2576.75,-108 2570.75,-108 2564.75,-102 2564.75,-96 2564.75,-96 2564.75,-84 2564.75,-84 2564.75,-78 2570.75,-72 2576.75,-72 2576.75,-72 2669.25,-72 2669.25,-72 2675.25,-72 2681.25,-78 2681.25,-84 2681.25,-84 2681.25,-96 2681.25,-96 2681.25,-102 2675.25,-108 2669.25,-108"/>
<text text-anchor="middle" x="2623" y="-93" font-family="sans" font-size="10.00">run_epistasis_model</text>
<text text-anchor="middle" x="2623" y="-82" font-family="sans" font-size="10.00">split: 20</text>
</g>
<!-- 2&#45;&gt;59 -->
<g id="edge122" class="edge"><title>2&#45;&gt;59</title>
<path fill="none" stroke="grey" stroke-width="2" d="M2207,-155.626C2283.7,-147.934 2424.48,-132.195 2554.36,-107.99"/>
<polygon fill="grey" stroke="grey" points="2555.31,-111.373 2564.49,-106.081 2554.01,-104.494 2555.31,-111.373"/>
</g>
<!-- 60 -->
<g id="node61" class="node"><title>60</title>
<path fill="none" stroke="#ced856" stroke-width="2" d="M2804.25,-108C2804.25,-108 2711.75,-108 2711.75,-108 2705.75,-108 2699.75,-102 2699.75,-96 2699.75,-96 2699.75,-84 2699.75,-84 2699.75,-78 2705.75,-72 2711.75,-72 2711.75,-72 2804.25,-72 2804.25,-72 2810.25,-72 2816.25,-78 2816.25,-84 2816.25,-84 2816.25,-96 2816.25,-96 2816.25,-102 2810.25,-108 2804.25,-108"/>
<text text-anchor="middle" x="2758" y="-93" font-family="sans" font-size="10.00">run_epistasis_model</text>
<text text-anchor="middle" x="2758" y="-82" font-family="sans" font-size="10.00">split: 21</text>
</g>
<!-- 2&#45;&gt;60 -->
<g id="edge123" class="edge"><title>2&#45;&gt;60</title>
<path fill="none" stroke="grey" stroke-width="2" d="M2207.12,-158.162C2304.28,-152.731 2507.97,-138.725 2689.51,-107.92"/>
<polygon fill="grey" stroke="grey" points="2690.25,-111.345 2699.51,-106.203 2689.06,-104.446 2690.25,-111.345"/>
</g>
<!-- 61 -->
<g id="node62" class="node"><title>61</title>
<path fill="none" stroke="#ced856" stroke-width="2" d="M2939.25,-108C2939.25,-108 2846.75,-108 2846.75,-108 2840.75,-108 2834.75,-102 2834.75,-96 2834.75,-96 2834.75,-84 2834.75,-84 2834.75,-78 2840.75,-72 2846.75,-72 2846.75,-72 2939.25,-72 2939.25,-72 2945.25,-72 2951.25,-78 2951.25,-84 2951.25,-84 2951.25,-96 2951.25,-96 2951.25,-102 2945.25,-108 2939.25,-108"/>
<text text-anchor="middle" x="2893" y="-93" font-family="sans" font-size="10.00">run_epistasis_model</text>
<text text-anchor="middle" x="2893" y="-82" font-family="sans" font-size="10.00">split: 22</text>
</g>
<!-- 2&#45;&gt;61 -->
<g id="edge124" class="edge"><title>2&#45;&gt;61</title>
<path fill="none" stroke="grey" stroke-width="2" d="M2207.28,-159.717C2322.49,-156.44 2590.46,-145.312 2824.46,-107.905"/>
<polygon fill="grey" stroke="grey" points="2825.21,-111.329 2834.52,-106.276 2824.09,-104.419 2825.21,-111.329"/>
</g>
<!-- 62 -->
<g id="node63" class="node"><title>62</title>
<path fill="none" stroke="#ced856" stroke-width="2" d="M3074.25,-108C3074.25,-108 2981.75,-108 2981.75,-108 2975.75,-108 2969.75,-102 2969.75,-96 2969.75,-96 2969.75,-84 2969.75,-84 2969.75,-78 2975.75,-72 2981.75,-72 2981.75,-72 3074.25,-72 3074.25,-72 3080.25,-72 3086.25,-78 3086.25,-84 3086.25,-84 3086.25,-96 3086.25,-96 3086.25,-102 3080.25,-108 3074.25,-108"/>
<text text-anchor="middle" x="3028" y="-93" font-family="sans" font-size="10.00">run_epistasis_model</text>
<text text-anchor="middle" x="3028" y="-82" font-family="sans" font-size="10.00">split: 23</text>
</g>
<!-- 2&#45;&gt;62 -->
<g id="edge125" class="edge"><title>2&#45;&gt;62</title>
<path fill="none" stroke="grey" stroke-width="2" d="M2207.35,-160.774C2338.85,-159.497 2672.21,-151.954 2959.34,-107.908"/>
<polygon fill="grey" stroke="grey" points="2960.19,-111.318 2969.53,-106.326 2959.11,-104.401 2960.19,-111.318"/>
</g>
<!-- 63 -->
<g id="node64" class="node"><title>63</title>
<path fill="none" stroke="#ced856" stroke-width="2" d="M3209.25,-108C3209.25,-108 3116.75,-108 3116.75,-108 3110.75,-108 3104.75,-102 3104.75,-96 3104.75,-96 3104.75,-84 3104.75,-84 3104.75,-78 3110.75,-72 3116.75,-72 3116.75,-72 3209.25,-72 3209.25,-72 3215.25,-72 3221.25,-78 3221.25,-84 3221.25,-84 3221.25,-96 3221.25,-96 3221.25,-102 3215.25,-108 3209.25,-108"/>
<text text-anchor="middle" x="3163" y="-93" font-family="sans" font-size="10.00">run_epistasis_model</text>
<text text-anchor="middle" x="3163" y="-82" font-family="sans" font-size="10.00">split: 24</text>
</g>
<!-- 2&#45;&gt;63 -->
<g id="edge126" class="edge"><title>2&#45;&gt;63</title>
<path fill="none" stroke="grey" stroke-width="2" d="M2207.11,-161.538C2353.39,-162.117 2753.43,-158.667 3094.46,-107.877"/>
<polygon fill="grey" stroke="grey" points="3095.17,-111.311 3104.54,-106.361 3094.13,-104.389 3095.17,-111.311"/>
</g>
<!-- 64 -->
<g id="node65" class="node"><title>64</title>
<path fill="none" stroke="#ced856" stroke-width="2" d="M3344.25,-108C3344.25,-108 3251.75,-108 3251.75,-108 3245.75,-108 3239.75,-102 3239.75,-96 3239.75,-96 3239.75,-84 3239.75,-84 3239.75,-78 3245.75,-72 3251.75,-72 3251.75,-72 3344.25,-72 3344.25,-72 3350.25,-72 3356.25,-78 3356.25,-84 3356.25,-84 3356.25,-96 3356.25,-96 3356.25,-102 3350.25,-108 3344.25,-108"/>
<text text-anchor="middle" x="3298" y="-93" font-family="sans" font-size="10.00">run_epistasis_model</text>
<text text-anchor="middle" x="3298" y="-82" font-family="sans" font-size="10.00">split: 25</text>
</g>
<!-- 2&#45;&gt;64 -->
<g id="edge127" class="edge"><title>2&#45;&gt;64</title>
<path fill="none" stroke="grey" stroke-width="2" d="M2207.18,-159.673C2397.63,-155.026 3010.24,-138.184 3229.4,-107.842"/>
<polygon fill="grey" stroke="grey" points="3230.14,-111.273 3239.54,-106.387 3229.14,-104.344 3230.14,-111.273"/>
</g>
<!-- 65 -->
<g id="node66" class="node"><title>65</title>
<path fill="none" stroke="#ced856" stroke-width="2" d="M3479.25,-108C3479.25,-108 3386.75,-108 3386.75,-108 3380.75,-108 3374.75,-102 3374.75,-96 3374.75,-96 3374.75,-84 3374.75,-84 3374.75,-78 3380.75,-72 3386.75,-72 3386.75,-72 3479.25,-72 3479.25,-72 3485.25,-72 3491.25,-78 3491.25,-84 3491.25,-84 3491.25,-96 3491.25,-96 3491.25,-102 3485.25,-108 3479.25,-108"/>
<text text-anchor="middle" x="3433" y="-93" font-family="sans" font-size="10.00">run_epistasis_model</text>
<text text-anchor="middle" x="3433" y="-82" font-family="sans" font-size="10.00">split: 26</text>
</g>
<!-- 2&#45;&gt;65 -->
<g id="edge128" class="edge"><title>2&#45;&gt;65</title>
<path fill="none" stroke="grey" stroke-width="2" d="M2207.31,-160.031C2413.46,-156.309 3117.63,-141.504 3364.54,-107.82"/>
<polygon fill="grey" stroke="grey" points="3365.13,-111.271 3374.54,-106.408 3364.15,-104.34 3365.13,-111.271"/>
</g>
<!-- 66 -->
<g id="node67" class="node"><title>66</title>
<path fill="none" stroke="#ced856" stroke-width="2" d="M3614.25,-108C3614.25,-108 3521.75,-108 3521.75,-108 3515.75,-108 3509.75,-102 3509.75,-96 3509.75,-96 3509.75,-84 3509.75,-84 3509.75,-78 3515.75,-72 3521.75,-72 3521.75,-72 3614.25,-72 3614.25,-72 3620.25,-72 3626.25,-78 3626.25,-84 3626.25,-84 3626.25,-96 3626.25,-96 3626.25,-102 3620.25,-108 3614.25,-108"/>
<text text-anchor="middle" x="3568" y="-93" font-family="sans" font-size="10.00">run_epistasis_model</text>
<text text-anchor="middle" x="3568" y="-82" font-family="sans" font-size="10.00">split: 27</text>
</g>
<!-- 2&#45;&gt;66 -->
<g id="edge129" class="edge"><title>2&#45;&gt;66</title>
<path fill="none" stroke="grey" stroke-width="2" d="M2207.05,-160.323C2427.51,-157.469 3224.65,-144.876 3499.59,-107.81"/>
<polygon fill="grey" stroke="grey" points="3500.12,-111.27 3509.55,-106.424 3499.16,-104.337 3500.12,-111.27"/>
</g>
<!-- 67 -->
<g id="node68" class="node"><title>67</title>
<path fill="none" stroke="#ced856" stroke-width="2" d="M3749.25,-108C3749.25,-108 3656.75,-108 3656.75,-108 3650.75,-108 3644.75,-102 3644.75,-96 3644.75,-96 3644.75,-84 3644.75,-84 3644.75,-78 3650.75,-72 3656.75,-72 3656.75,-72 3749.25,-72 3749.25,-72 3755.25,-72 3761.25,-78 3761.25,-84 3761.25,-84 3761.25,-96 3761.25,-96 3761.25,-102 3755.25,-108 3749.25,-108"/>
<text text-anchor="middle" x="3703" y="-93" font-family="sans" font-size="10.00">run_epistasis_model</text>
<text text-anchor="middle" x="3703" y="-82" font-family="sans" font-size="10.00">split: 28</text>
</g>
<!-- 2&#45;&gt;67 -->
<g id="edge130" class="edge"><title>2&#45;&gt;67</title>
<path fill="none" stroke="grey" stroke-width="2" d="M2207.02,-160.56C2441.31,-158.507 3331.32,-148.263 3634.45,-107.827"/>
<polygon fill="grey" stroke="grey" points="3635.12,-111.268 3644.55,-106.438 3634.16,-104.334 3635.12,-111.268"/>
</g>
<!-- 68 -->
<g id="node69" class="node"><title>68</title>
<path fill="none" stroke="#ced856" stroke-width="2" d="M3884.25,-108C3884.25,-108 3791.75,-108 3791.75,-108 3785.75,-108 3779.75,-102 3779.75,-96 3779.75,-96 3779.75,-84 3779.75,-84 3779.75,-78 3785.75,-72 3791.75,-72 3791.75,-72 3884.25,-72 3884.25,-72 3890.25,-72 3896.25,-78 3896.25,-84 3896.25,-84 3896.25,-96 3896.25,-96 3896.25,-102 3890.25,-108 3884.25,-108"/>
<text text-anchor="middle" x="3838" y="-93" font-family="sans" font-size="10.00">run_epistasis_model</text>
<text text-anchor="middle" x="3838" y="-82" font-family="sans" font-size="10.00">split: 29</text>
</g>
<!-- 2&#45;&gt;68 -->
<g id="edge131" class="edge"><title>2&#45;&gt;68</title>
<path fill="none" stroke="grey" stroke-width="2" d="M2207.06,-160.756C2454.7,-159.452 3438.28,-151.659 3769.47,-107.823"/>
<polygon fill="grey" stroke="grey" points="3770.11,-111.268 3779.55,-106.449 3769.17,-104.332 3770.11,-111.268"/>
</g>
<!-- 69 -->
<g id="node70" class="node"><title>69</title>
<path fill="none" stroke="#ced856" stroke-width="2" d="M4019.25,-108C4019.25,-108 3926.75,-108 3926.75,-108 3920.75,-108 3914.75,-102 3914.75,-96 3914.75,-96 3914.75,-84 3914.75,-84 3914.75,-78 3920.75,-72 3926.75,-72 3926.75,-72 4019.25,-72 4019.25,-72 4025.25,-72 4031.25,-78 4031.25,-84 4031.25,-84 4031.25,-96 4031.25,-96 4031.25,-102 4025.25,-108 4019.25,-108"/>
<text text-anchor="middle" x="3973" y="-93" font-family="sans" font-size="10.00">run_epistasis_model</text>
<text text-anchor="middle" x="3973" y="-82" font-family="sans" font-size="10.00">split: 30</text>
</g>
<!-- 2&#45;&gt;69 -->
<g id="edge132" class="edge"><title>2&#45;&gt;69</title>
<path fill="none" stroke="grey" stroke-width="2" d="M2207.34,-160.923C2468.19,-160.32 3545.1,-155.056 3904.39,-107.832"/>
<polygon fill="grey" stroke="grey" points="3905.11,-111.267 3914.55,-106.459 3904.17,-104.33 3905.11,-111.267"/>
</g>
<!-- 70 -->
<g id="node71" class="node"><title>70</title>
<path fill="none" stroke="#ced856" stroke-width="2" d="M4154.25,-108C4154.25,-108 4061.75,-108 4061.75,-108 4055.75,-108 4049.75,-102 4049.75,-96 4049.75,-96 4049.75,-84 4049.75,-84 4049.75,-78 4055.75,-72 4061.75,-72 4061.75,-72 4154.25,-72 4154.25,-72 4160.25,-72 4166.25,-78 4166.25,-84 4166.25,-84 4166.25,-96 4166.25,-96 4166.25,-102 4160.25,-108 4154.25,-108"/>
<text text-anchor="middle" x="4108" y="-93" font-family="sans" font-size="10.00">run_epistasis_model</text>
<text text-anchor="middle" x="4108" y="-82" font-family="sans" font-size="10.00">split: 31</text>
</g>
<!-- 2&#45;&gt;70 -->
<g id="edge133" class="edge"><title>2&#45;&gt;70</title>
<path fill="none" stroke="grey" stroke-width="2" d="M2207.1,-161.067C2479.79,-161.133 3651.87,-158.496 4039.43,-107.826"/>
<polygon fill="grey" stroke="grey" points="4040.11,-111.267 4049.55,-106.467 4039.18,-104.329 4040.11,-111.267"/>
</g>
<!-- 71 -->
<g id="node72" class="node"><title>71</title>
<path fill="none" stroke="#ced856" stroke-width="2" d="M4289.25,-108C4289.25,-108 4196.75,-108 4196.75,-108 4190.75,-108 4184.75,-102 4184.75,-96 4184.75,-96 4184.75,-84 4184.75,-84 4184.75,-78 4190.75,-72 4196.75,-72 4196.75,-72 4289.25,-72 4289.25,-72 4295.25,-72 4301.25,-78 4301.25,-84 4301.25,-84 4301.25,-96 4301.25,-96 4301.25,-102 4295.25,-108 4289.25,-108"/>
<text text-anchor="middle" x="4243" y="-93" font-family="sans" font-size="10.00">run_epistasis_model</text>
<text text-anchor="middle" x="4243" y="-82" font-family="sans" font-size="10.00">split: 32</text>
</g>
<!-- 2&#45;&gt;71 -->
<g id="edge134" class="edge"><title>2&#45;&gt;71</title>
<path fill="none" stroke="grey" stroke-width="2" d="M2207.32,-161.192C2492.3,-161.89 3759.08,-161.919 4174.6,-107.803"/>
<polygon fill="grey" stroke="grey" points="4175.1,-111.267 4184.55,-106.474 4174.18,-104.328 4175.1,-111.267"/>
</g>
<!-- 3 -->
<g id="node4" class="node"><title>3</title>
<path fill="none" stroke="#56d86b" stroke-width="2" d="M809,-252C809,-252 763,-252 763,-252 757,-252 751,-246 751,-240 751,-240 751,-228 751,-228 751,-222 757,-216 763,-216 763,-216 809,-216 809,-216 815,-216 821,-222 821,-228 821,-228 821,-240 821,-240 821,-246 815,-252 809,-252"/>
<text text-anchor="middle" x="786" y="-237" font-family="sans" font-size="10.00">run_SCENT</text>
<text text-anchor="middle" x="786" y="-226" font-family="sans" font-size="10.00">split: 1</text>
</g>
<!-- 3&#45;&gt;2 -->
<g id="edge34" class="edge"><title>3&#45;&gt;2</title>
<path fill="none" stroke="grey" stroke-width="2" d="M821.239,-218.24C824.168,-217.365 827.113,-216.598 830,-216 1073.14,-165.595 1849.32,-162.54 2082.88,-162.797"/>
<polygon fill="grey" stroke="grey" points="2082.93,-166.297 2092.94,-162.81 2082.94,-159.297 2082.93,-166.297"/>
</g>
<!-- 4 -->
<g id="node5" class="node"><title>4</title>
<path fill="none" stroke="#56b1d8" stroke-width="2" stroke-dasharray="5,2" d="M2214.25,-324C2214.25,-324 2085.75,-324 2085.75,-324 2079.75,-324 2073.75,-318 2073.75,-312 2073.75,-312 2073.75,-300 2073.75,-300 2073.75,-294 2079.75,-288 2085.75,-288 2085.75,-288 2214.25,-288 2214.25,-288 2220.25,-288 2226.25,-294 2226.25,-300 2226.25,-300 2226.25,-312 2226.25,-312 2226.25,-318 2220.25,-324 2214.25,-324"/>
<text text-anchor="middle" x="2150" y="-303.5" font-family="sans" font-size="10.00">filter_split_peak_gene_pairs</text>
</g>
<!-- 4&#45;&gt;3 -->
<g id="edge66" class="edge"><title>4&#45;&gt;3</title>
<path fill="none" stroke="grey" stroke-width="2" d="M2073.62,-305.212C1832.69,-305.371 1089.95,-301.852 831.342,-251.792"/>
<polygon fill="grey" stroke="grey" points="831.732,-248.3 821.239,-249.76 830.352,-255.163 831.732,-248.3"/>
</g>
<!-- 10 -->
<g id="node11" class="node"><title>10</title>
<path fill="none" stroke="#56d86b" stroke-width="2" d="M897,-252C897,-252 851,-252 851,-252 845,-252 839,-246 839,-240 839,-240 839,-228 839,-228 839,-222 845,-216 851,-216 851,-216 897,-216 897,-216 903,-216 909,-222 909,-228 909,-228 909,-240 909,-240 909,-246 903,-252 897,-252"/>
<text text-anchor="middle" x="874" y="-237" font-family="sans" font-size="10.00">run_SCENT</text>
<text text-anchor="middle" x="874" y="-226" font-family="sans" font-size="10.00">split: 2</text>
</g>
<!-- 4&#45;&gt;10 -->
<g id="edge73" class="edge"><title>4&#45;&gt;10</title>
<path fill="none" stroke="grey" stroke-width="2" d="M2073.43,-304.953C1843.38,-304.307 1160,-298.577 919.334,-251.792"/>
<polygon fill="grey" stroke="grey" points="919.736,-248.303 909.24,-249.751 918.348,-255.164 919.736,-248.303"/>
</g>
<!-- 11 -->
<g id="node12" class="node"><title>11</title>
<path fill="none" stroke="#56d86b" stroke-width="2" d="M985,-252C985,-252 939,-252 939,-252 933,-252 927,-246 927,-240 927,-240 927,-228 927,-228 927,-222 933,-216 939,-216 939,-216 985,-216 985,-216 991,-216 997,-222 997,-228 997,-228 997,-240 997,-240 997,-246 991,-252 985,-252"/>
<text text-anchor="middle" x="962" y="-237" font-family="sans" font-size="10.00">run_SCENT</text>
<text text-anchor="middle" x="962" y="-226" font-family="sans" font-size="10.00">split: 3</text>
</g>
<!-- 4&#45;&gt;11 -->
<g id="edge74" class="edge"><title>4&#45;&gt;11</title>
<path fill="none" stroke="grey" stroke-width="2" d="M2073.44,-304.655C1854.87,-303.172 1229.96,-295.327 1007.22,-251.774"/>
<polygon fill="grey" stroke="grey" points="1007.74,-248.307 997.243,-249.74 1006.34,-255.166 1007.74,-248.307"/>
</g>
<!-- 12 -->
<g id="node13" class="node"><title>12</title>
<path fill="none" stroke="#56d86b" stroke-width="2" d="M1073,-252C1073,-252 1027,-252 1027,-252 1021,-252 1015,-246 1015,-240 1015,-240 1015,-228 1015,-228 1015,-222 1021,-216 1027,-216 1027,-216 1073,-216 1073,-216 1079,-216 1085,-222 1085,-228 1085,-228 1085,-240 1085,-240 1085,-246 1079,-252 1073,-252"/>
<text text-anchor="middle" x="1050" y="-237" font-family="sans" font-size="10.00">run_SCENT</text>
<text text-anchor="middle" x="1050" y="-226" font-family="sans" font-size="10.00">split: 4</text>
</g>
<!-- 4&#45;&gt;12 -->
<g id="edge75" class="edge"><title>4&#45;&gt;12</title>
<path fill="none" stroke="grey" stroke-width="2" d="M2073.38,-304.308C1866.73,-301.948 1300.3,-292.095 1095.31,-251.795"/>
<polygon fill="grey" stroke="grey" points="1095.74,-248.311 1085.25,-249.728 1094.34,-255.168 1095.74,-248.311"/>
</g>
<!-- 13 -->
<g id="node14" class="node"><title>13</title>
<path fill="none" stroke="#56d86b" stroke-width="2" d="M1161,-252C1161,-252 1115,-252 1115,-252 1109,-252 1103,-246 1103,-240 1103,-240 1103,-228 1103,-228 1103,-222 1109,-216 1115,-216 1115,-216 1161,-216 1161,-216 1167,-216 1173,-222 1173,-228 1173,-228 1173,-240 1173,-240 1173,-246 1167,-252 1161,-252"/>
<text text-anchor="middle" x="1138" y="-237" font-family="sans" font-size="10.00">run_SCENT</text>
<text text-anchor="middle" x="1138" y="-226" font-family="sans" font-size="10.00">split: 5</text>
</g>
<!-- 4&#45;&gt;13 -->
<g id="edge76" class="edge"><title>4&#45;&gt;13</title>
<path fill="none" stroke="grey" stroke-width="2" d="M2073.4,-303.899C1879.22,-300.622 1370.42,-288.882 1183.25,-251.787"/>
<polygon fill="grey" stroke="grey" points="1183.75,-248.317 1173.25,-249.714 1182.33,-255.171 1183.75,-248.317"/>
</g>
<!-- 14 -->
<g id="node15" class="node"><title>14</title>
<path fill="none" stroke="#56d86b" stroke-width="2" d="M1249,-252C1249,-252 1203,-252 1203,-252 1197,-252 1191,-246 1191,-240 1191,-240 1191,-228 1191,-228 1191,-222 1197,-216 1203,-216 1203,-216 1249,-216 1249,-216 1255,-216 1261,-222 1261,-228 1261,-228 1261,-240 1261,-240 1261,-246 1255,-252 1249,-252"/>
<text text-anchor="middle" x="1226" y="-237" font-family="sans" font-size="10.00">run_SCENT</text>
<text text-anchor="middle" x="1226" y="-226" font-family="sans" font-size="10.00">split: 6</text>
</g>
<!-- 4&#45;&gt;14 -->
<g id="edge77" class="edge"><title>4&#45;&gt;14</title>
<path fill="none" stroke="grey" stroke-width="2" d="M2073.69,-303.416C1892.75,-299.186 1440.84,-285.712 1271.29,-251.8"/>
<polygon fill="grey" stroke="grey" points="1271.76,-248.323 1261.25,-249.696 1270.32,-255.174 1271.76,-248.323"/>
</g>
<!-- 15 -->
<g id="node16" class="node"><title>15</title>
<path fill="none" stroke="#56d86b" stroke-width="2" d="M1337,-252C1337,-252 1291,-252 1291,-252 1285,-252 1279,-246 1279,-240 1279,-240 1279,-228 1279,-228 1279,-222 1285,-216 1291,-216 1291,-216 1337,-216 1337,-216 1343,-216 1349,-222 1349,-228 1349,-228 1349,-240 1349,-240 1349,-246 1343,-252 1337,-252"/>
<text text-anchor="middle" x="1314" y="-237" font-family="sans" font-size="10.00">run_SCENT</text>
<text text-anchor="middle" x="1314" y="-226" font-family="sans" font-size="10.00">split: 7</text>
</g>
<!-- 4&#45;&gt;15 -->
<g id="edge78" class="edge"><title>4&#45;&gt;15</title>
<path fill="none" stroke="grey" stroke-width="2" d="M2073.49,-302.815C1906.15,-297.572 1511.16,-282.542 1359.33,-251.818"/>
<polygon fill="grey" stroke="grey" points="1359.77,-248.332 1349.26,-249.675 1358.31,-255.179 1359.77,-248.332"/>
</g>
<!-- 16 -->
<g id="node17" class="node"><title>16</title>
<path fill="none" stroke="#56d86b" stroke-width="2" d="M1425,-252C1425,-252 1379,-252 1379,-252 1373,-252 1367,-246 1367,-240 1367,-240 1367,-228 1367,-228 1367,-222 1373,-216 1379,-216 1379,-216 1425,-216 1425,-216 1431,-216 1437,-222 1437,-228 1437,-228 1437,-240 1437,-240 1437,-246 1431,-252 1425,-252"/>
<text text-anchor="middle" x="1402" y="-237" font-family="sans" font-size="10.00">run_SCENT</text>
<text text-anchor="middle" x="1402" y="-226" font-family="sans" font-size="10.00">split: 8</text>
</g>
<!-- 4&#45;&gt;16 -->
<g id="edge79" class="edge"><title>4&#45;&gt;16</title>
<path fill="none" stroke="grey" stroke-width="2" d="M2073.52,-302.074C1920.71,-295.776 1581.5,-279.415 1447.32,-251.827"/>
<polygon fill="grey" stroke="grey" points="1447.78,-248.344 1437.26,-249.648 1446.3,-255.186 1447.78,-248.344"/>
</g>
<!-- 17 -->
<g id="node18" class="node"><title>17</title>
<path fill="none" stroke="#56d86b" stroke-width="2" d="M1513,-252C1513,-252 1467,-252 1467,-252 1461,-252 1455,-246 1455,-240 1455,-240 1455,-228 1455,-228 1455,-222 1461,-216 1467,-216 1467,-216 1513,-216 1513,-216 1519,-216 1525,-222 1525,-228 1525,-228 1525,-240 1525,-240 1525,-246 1519,-252 1513,-252"/>
<text text-anchor="middle" x="1490" y="-237" font-family="sans" font-size="10.00">run_SCENT</text>
<text text-anchor="middle" x="1490" y="-226" font-family="sans" font-size="10.00">split: 9</text>
</g>
<!-- 4&#45;&gt;17 -->
<g id="edge80" class="edge"><title>4&#45;&gt;17</title>
<path fill="none" stroke="grey" stroke-width="2" d="M2073.54,-305.313C1957.97,-304.275 1732.25,-296.346 1535.22,-251.897"/>
<polygon fill="grey" stroke="grey" points="1535.8,-248.438 1525.27,-249.614 1534.24,-255.261 1535.8,-248.438"/>
</g>
<!-- 18 -->
<g id="node19" class="node"><title>18</title>
<path fill="none" stroke="#56d86b" stroke-width="2" d="M1601,-252C1601,-252 1555,-252 1555,-252 1549,-252 1543,-246 1543,-240 1543,-240 1543,-228 1543,-228 1543,-222 1549,-216 1555,-216 1555,-216 1601,-216 1601,-216 1607,-216 1613,-222 1613,-228 1613,-228 1613,-240 1613,-240 1613,-246 1607,-252 1601,-252"/>
<text text-anchor="middle" x="1578" y="-237" font-family="sans" font-size="10.00">run_SCENT</text>
<text text-anchor="middle" x="1578" y="-226" font-family="sans" font-size="10.00">split: 10</text>
</g>
<!-- 4&#45;&gt;18 -->
<g id="edge81" class="edge"><title>4&#45;&gt;18</title>
<path fill="none" stroke="grey" stroke-width="2" d="M2073.74,-303.739C1972.16,-300.647 1787.12,-290.079 1623.06,-251.885"/>
<polygon fill="grey" stroke="grey" points="1623.82,-248.468 1613.28,-249.569 1622.21,-255.279 1623.82,-248.468"/>
</g>
<!-- 19 -->
<g id="node20" class="node"><title>19</title>
<path fill="none" stroke="#56d86b" stroke-width="2" d="M1689,-252C1689,-252 1643,-252 1643,-252 1637,-252 1631,-246 1631,-240 1631,-240 1631,-228 1631,-228 1631,-222 1637,-216 1643,-216 1643,-216 1689,-216 1689,-216 1695,-216 1701,-222 1701,-228 1701,-228 1701,-240 1701,-240 1701,-246 1695,-252 1689,-252"/>
<text text-anchor="middle" x="1666" y="-237" font-family="sans" font-size="10.00">run_SCENT</text>
<text text-anchor="middle" x="1666" y="-226" font-family="sans" font-size="10.00">split: 11</text>
</g>
<!-- 4&#45;&gt;19 -->
<g id="edge82" class="edge"><title>4&#45;&gt;19</title>
<path fill="none" stroke="grey" stroke-width="2" d="M2073.44,-301.553C1986.99,-296.371 1842.33,-283.804 1711.12,-251.935"/>
<polygon fill="grey" stroke="grey" points="1711.84,-248.509 1701.3,-249.506 1710.16,-255.304 1711.84,-248.509"/>
</g>
<!-- 20 -->
<g id="node21" class="node"><title>20</title>
<path fill="none" stroke="#56d86b" stroke-width="2" d="M1777,-252C1777,-252 1731,-252 1731,-252 1725,-252 1719,-246 1719,-240 1719,-240 1719,-228 1719,-228 1719,-222 1725,-216 1731,-216 1731,-216 1777,-216 1777,-216 1783,-216 1789,-222 1789,-228 1789,-228 1789,-240 1789,-240 1789,-246 1783,-252 1777,-252"/>
<text text-anchor="middle" x="1754" y="-237" font-family="sans" font-size="10.00">run_SCENT</text>
<text text-anchor="middle" x="1754" y="-226" font-family="sans" font-size="10.00">split: 12</text>
</g>
<!-- 4&#45;&gt;20 -->
<g id="edge83" class="edge"><title>4&#45;&gt;20</title>
<path fill="none" stroke="grey" stroke-width="2" d="M2073.49,-298.362C2003.84,-291.214 1898.26,-277.611 1799.19,-252.01"/>
<polygon fill="grey" stroke="grey" points="1799.88,-248.572 1789.32,-249.413 1798.1,-255.342 1799.88,-248.572"/>
</g>
<!-- 21 -->
<g id="node22" class="node"><title>21</title>
<path fill="none" stroke="#56d86b" stroke-width="2" d="M1865,-252C1865,-252 1819,-252 1819,-252 1813,-252 1807,-246 1807,-240 1807,-240 1807,-228 1807,-228 1807,-222 1813,-216 1819,-216 1819,-216 1865,-216 1865,-216 1871,-216 1877,-222 1877,-228 1877,-228 1877,-240 1877,-240 1877,-246 1871,-252 1865,-252"/>
<text text-anchor="middle" x="1842" y="-237" font-family="sans" font-size="10.00">run_SCENT</text>
<text text-anchor="middle" x="1842" y="-226" font-family="sans" font-size="10.00">split: 13</text>
</g>
<!-- 4&#45;&gt;21 -->
<g id="edge84" class="edge"><title>4&#45;&gt;21</title>
<path fill="none" stroke="grey" stroke-width="2" d="M2073.49,-293.196C2022.83,-284.558 1954.89,-271.409 1887.33,-252.146"/>
<polygon fill="grey" stroke="grey" points="1887.94,-248.681 1877.36,-249.26 1885.99,-255.404 1887.94,-248.681"/>
</g>
<!-- 22 -->
<g id="node23" class="node"><title>22</title>
<path fill="none" stroke="#56d86b" stroke-width="2" d="M1953,-252C1953,-252 1907,-252 1907,-252 1901,-252 1895,-246 1895,-240 1895,-240 1895,-228 1895,-228 1895,-222 1901,-216 1907,-216 1907,-216 1953,-216 1953,-216 1959,-216 1965,-222 1965,-228 1965,-228 1965,-240 1965,-240 1965,-246 1959,-252 1953,-252"/>
<text text-anchor="middle" x="1930" y="-237" font-family="sans" font-size="10.00">run_SCENT</text>
<text text-anchor="middle" x="1930" y="-226" font-family="sans" font-size="10.00">split: 14</text>
</g>
<!-- 4&#45;&gt;22 -->
<g id="edge85" class="edge"><title>4&#45;&gt;22</title>
<path fill="none" stroke="grey" stroke-width="2" d="M2089.36,-287.976C2057.59,-278.77 2017.9,-266.82 1974.96,-252.222"/>
<polygon fill="grey" stroke="grey" points="1976.05,-248.896 1965.46,-248.966 1973.78,-255.518 1976.05,-248.896"/>
</g>
<!-- 23 -->
<g id="node24" class="node"><title>23</title>
<path fill="none" stroke="#56d86b" stroke-width="2" d="M2041,-252C2041,-252 1995,-252 1995,-252 1989,-252 1983,-246 1983,-240 1983,-240 1983,-228 1983,-228 1983,-222 1989,-216 1995,-216 1995,-216 2041,-216 2041,-216 2047,-216 2053,-222 2053,-228 2053,-228 2053,-240 2053,-240 2053,-246 2047,-252 2041,-252"/>
<text text-anchor="middle" x="2018" y="-237" font-family="sans" font-size="10.00">run_SCENT</text>
<text text-anchor="middle" x="2018" y="-226" font-family="sans" font-size="10.00">split: 15</text>
</g>
<!-- 4&#45;&gt;23 -->
<g id="edge86" class="edge"><title>4&#45;&gt;23</title>
<path fill="none" stroke="grey" stroke-width="2" d="M2117.71,-287.876C2100.13,-278.554 2078.19,-266.919 2059.37,-256.939"/>
<polygon fill="grey" stroke="grey" points="2060.89,-253.783 2050.41,-252.19 2057.61,-259.967 2060.89,-253.783"/>
</g>
<!-- 24 -->
<g id="node25" class="node"><title>24</title>
<path fill="none" stroke="#56d86b" stroke-width="2" d="M2129,-252C2129,-252 2083,-252 2083,-252 2077,-252 2071,-246 2071,-240 2071,-240 2071,-228 2071,-228 2071,-222 2077,-216 2083,-216 2083,-216 2129,-216 2129,-216 2135,-216 2141,-222 2141,-228 2141,-228 2141,-240 2141,-240 2141,-246 2135,-252 2129,-252"/>
<text text-anchor="middle" x="2106" y="-237" font-family="sans" font-size="10.00">run_SCENT</text>
<text text-anchor="middle" x="2106" y="-226" font-family="sans" font-size="10.00">split: 16</text>
</g>
<!-- 4&#45;&gt;24 -->
<g id="edge87" class="edge"><title>4&#45;&gt;24</title>
<path fill="none" stroke="grey" stroke-width="2" d="M2139.12,-287.697C2134.01,-279.559 2127.8,-269.689 2122.16,-260.701"/>
<polygon fill="grey" stroke="grey" points="2125.04,-258.708 2116.75,-252.104 2119.11,-262.433 2125.04,-258.708"/>
</g>
<!-- 25 -->
<g id="node26" class="node"><title>25</title>
<path fill="none" stroke="#56d86b" stroke-width="2" d="M2217,-252C2217,-252 2171,-252 2171,-252 2165,-252 2159,-246 2159,-240 2159,-240 2159,-228 2159,-228 2159,-222 2165,-216 2171,-216 2171,-216 2217,-216 2217,-216 2223,-216 2229,-222 2229,-228 2229,-228 2229,-240 2229,-240 2229,-246 2223,-252 2217,-252"/>
<text text-anchor="middle" x="2194" y="-237" font-family="sans" font-size="10.00">run_SCENT</text>
<text text-anchor="middle" x="2194" y="-226" font-family="sans" font-size="10.00">split: 17</text>
</g>
<!-- 4&#45;&gt;25 -->
<g id="edge88" class="edge"><title>4&#45;&gt;25</title>
<path fill="none" stroke="grey" stroke-width="2" d="M2160.88,-287.697C2165.99,-279.559 2172.2,-269.689 2177.84,-260.701"/>
<polygon fill="grey" stroke="grey" points="2180.89,-262.433 2183.25,-252.104 2174.96,-258.708 2180.89,-262.433"/>
</g>
<!-- 26 -->
<g id="node27" class="node"><title>26</title>
<path fill="none" stroke="#56d86b" stroke-width="2" d="M2305,-252C2305,-252 2259,-252 2259,-252 2253,-252 2247,-246 2247,-240 2247,-240 2247,-228 2247,-228 2247,-222 2253,-216 2259,-216 2259,-216 2305,-216 2305,-216 2311,-216 2317,-222 2317,-228 2317,-228 2317,-240 2317,-240 2317,-246 2311,-252 2305,-252"/>
<text text-anchor="middle" x="2282" y="-237" font-family="sans" font-size="10.00">run_SCENT</text>
<text text-anchor="middle" x="2282" y="-226" font-family="sans" font-size="10.00">split: 18</text>
</g>
<!-- 4&#45;&gt;26 -->
<g id="edge89" class="edge"><title>4&#45;&gt;26</title>
<path fill="none" stroke="grey" stroke-width="2" d="M2182.29,-287.876C2199.87,-278.554 2221.81,-266.919 2240.63,-256.939"/>
<polygon fill="grey" stroke="grey" points="2242.39,-259.967 2249.59,-252.19 2239.11,-253.783 2242.39,-259.967"/>
</g>
<!-- 27 -->
<g id="node28" class="node"><title>27</title>
<path fill="none" stroke="#56d86b" stroke-width="2" d="M2393,-252C2393,-252 2347,-252 2347,-252 2341,-252 2335,-246 2335,-240 2335,-240 2335,-228 2335,-228 2335,-222 2341,-216 2347,-216 2347,-216 2393,-216 2393,-216 2399,-216 2405,-222 2405,-228 2405,-228 2405,-240 2405,-240 2405,-246 2399,-252 2393,-252"/>
<text text-anchor="middle" x="2370" y="-237" font-family="sans" font-size="10.00">run_SCENT</text>
<text text-anchor="middle" x="2370" y="-226" font-family="sans" font-size="10.00">split: 19</text>
</g>
<!-- 4&#45;&gt;27 -->
<g id="edge90" class="edge"><title>4&#45;&gt;27</title>
<path fill="none" stroke="grey" stroke-width="2" d="M2210.64,-287.976C2242.41,-278.77 2282.1,-266.82 2325.04,-252.222"/>
<polygon fill="grey" stroke="grey" points="2326.22,-255.518 2334.54,-248.966 2323.95,-248.896 2326.22,-255.518"/>
</g>
<!-- 28 -->
<g id="node29" class="node"><title>28</title>
<path fill="none" stroke="#56d86b" stroke-width="2" d="M2481,-252C2481,-252 2435,-252 2435,-252 2429,-252 2423,-246 2423,-240 2423,-240 2423,-228 2423,-228 2423,-222 2429,-216 2435,-216 2435,-216 2481,-216 2481,-216 2487,-216 2493,-222 2493,-228 2493,-228 2493,-240 2493,-240 2493,-246 2487,-252 2481,-252"/>
<text text-anchor="middle" x="2458" y="-237" font-family="sans" font-size="10.00">run_SCENT</text>
<text text-anchor="middle" x="2458" y="-226" font-family="sans" font-size="10.00">split: 20</text>
</g>
<!-- 4&#45;&gt;28 -->
<g id="edge91" class="edge"><title>4&#45;&gt;28</title>
<path fill="none" stroke="grey" stroke-width="2" d="M2226.51,-293.196C2277.17,-284.558 2345.11,-271.409 2412.67,-252.146"/>
<polygon fill="grey" stroke="grey" points="2414.01,-255.404 2422.64,-249.26 2412.06,-248.681 2414.01,-255.404"/>
</g>
<!-- 29 -->
<g id="node30" class="node"><title>29</title>
<path fill="none" stroke="#56d86b" stroke-width="2" d="M2569,-252C2569,-252 2523,-252 2523,-252 2517,-252 2511,-246 2511,-240 2511,-240 2511,-228 2511,-228 2511,-222 2517,-216 2523,-216 2523,-216 2569,-216 2569,-216 2575,-216 2581,-222 2581,-228 2581,-228 2581,-240 2581,-240 2581,-246 2575,-252 2569,-252"/>
<text text-anchor="middle" x="2546" y="-237" font-family="sans" font-size="10.00">run_SCENT</text>
<text text-anchor="middle" x="2546" y="-226" font-family="sans" font-size="10.00">split: 21</text>
</g>
<!-- 4&#45;&gt;29 -->
<g id="edge92" class="edge"><title>4&#45;&gt;29</title>
<path fill="none" stroke="grey" stroke-width="2" d="M2226.51,-298.362C2296.16,-291.214 2401.74,-277.611 2500.81,-252.01"/>
<polygon fill="grey" stroke="grey" points="2501.9,-255.342 2510.68,-249.413 2500.12,-248.572 2501.9,-255.342"/>
</g>
<!-- 30 -->
<g id="node31" class="node"><title>30</title>
<path fill="none" stroke="#56d86b" stroke-width="2" d="M2657,-252C2657,-252 2611,-252 2611,-252 2605,-252 2599,-246 2599,-240 2599,-240 2599,-228 2599,-228 2599,-222 2605,-216 2611,-216 2611,-216 2657,-216 2657,-216 2663,-216 2669,-222 2669,-228 2669,-228 2669,-240 2669,-240 2669,-246 2663,-252 2657,-252"/>
<text text-anchor="middle" x="2634" y="-237" font-family="sans" font-size="10.00">run_SCENT</text>
<text text-anchor="middle" x="2634" y="-226" font-family="sans" font-size="10.00">split: 22</text>
</g>
<!-- 4&#45;&gt;30 -->
<g id="edge93" class="edge"><title>4&#45;&gt;30</title>
<path fill="none" stroke="grey" stroke-width="2" d="M2226.56,-301.553C2313.01,-296.371 2457.67,-283.804 2588.88,-251.935"/>
<polygon fill="grey" stroke="grey" points="2589.84,-255.304 2598.7,-249.506 2588.16,-248.509 2589.84,-255.304"/>
</g>
<!-- 31 -->
<g id="node32" class="node"><title>31</title>
<path fill="none" stroke="#56d86b" stroke-width="2" d="M2745,-252C2745,-252 2699,-252 2699,-252 2693,-252 2687,-246 2687,-240 2687,-240 2687,-228 2687,-228 2687,-222 2693,-216 2699,-216 2699,-216 2745,-216 2745,-216 2751,-216 2757,-222 2757,-228 2757,-228 2757,-240 2757,-240 2757,-246 2751,-252 2745,-252"/>
<text text-anchor="middle" x="2722" y="-237" font-family="sans" font-size="10.00">run_SCENT</text>
<text text-anchor="middle" x="2722" y="-226" font-family="sans" font-size="10.00">split: 23</text>
</g>
<!-- 4&#45;&gt;31 -->
<g id="edge94" class="edge"><title>4&#45;&gt;31</title>
<path fill="none" stroke="grey" stroke-width="2" d="M2226.26,-303.739C2327.84,-300.647 2512.88,-290.079 2676.94,-251.885"/>
<polygon fill="grey" stroke="grey" points="2677.79,-255.279 2686.72,-249.569 2676.18,-248.468 2677.79,-255.279"/>
</g>
<!-- 32 -->
<g id="node33" class="node"><title>32</title>
<path fill="none" stroke="#56d86b" stroke-width="2" d="M2833,-252C2833,-252 2787,-252 2787,-252 2781,-252 2775,-246 2775,-240 2775,-240 2775,-228 2775,-228 2775,-222 2781,-216 2787,-216 2787,-216 2833,-216 2833,-216 2839,-216 2845,-222 2845,-228 2845,-228 2845,-240 2845,-240 2845,-246 2839,-252 2833,-252"/>
<text text-anchor="middle" x="2810" y="-237" font-family="sans" font-size="10.00">run_SCENT</text>
<text text-anchor="middle" x="2810" y="-226" font-family="sans" font-size="10.00">split: 24</text>
</g>
<!-- 4&#45;&gt;32 -->
<g id="edge95" class="edge"><title>4&#45;&gt;32</title>
<path fill="none" stroke="grey" stroke-width="2" d="M2226.46,-305.313C2342.03,-304.275 2567.75,-296.346 2764.78,-251.897"/>
<polygon fill="grey" stroke="grey" points="2765.76,-255.261 2774.73,-249.614 2764.2,-248.438 2765.76,-255.261"/>
</g>
<!-- 33 -->
<g id="node34" class="node"><title>33</title>
<path fill="none" stroke="#56d86b" stroke-width="2" d="M2921,-252C2921,-252 2875,-252 2875,-252 2869,-252 2863,-246 2863,-240 2863,-240 2863,-228 2863,-228 2863,-222 2869,-216 2875,-216 2875,-216 2921,-216 2921,-216 2927,-216 2933,-222 2933,-228 2933,-228 2933,-240 2933,-240 2933,-246 2927,-252 2921,-252"/>
<text text-anchor="middle" x="2898" y="-237" font-family="sans" font-size="10.00">run_SCENT</text>
<text text-anchor="middle" x="2898" y="-226" font-family="sans" font-size="10.00">split: 25</text>
</g>
<!-- 4&#45;&gt;33 -->
<g id="edge96" class="edge"><title>4&#45;&gt;33</title>
<path fill="none" stroke="grey" stroke-width="2" d="M2226.48,-302.074C2379.29,-295.776 2718.5,-279.415 2852.68,-251.827"/>
<polygon fill="grey" stroke="grey" points="2853.7,-255.186 2862.74,-249.648 2852.22,-248.344 2853.7,-255.186"/>
</g>
<!-- 34 -->
<g id="node35" class="node"><title>34</title>
<path fill="none" stroke="#56d86b" stroke-width="2" d="M3009,-252C3009,-252 2963,-252 2963,-252 2957,-252 2951,-246 2951,-240 2951,-240 2951,-228 2951,-228 2951,-222 2957,-216 2963,-216 2963,-216 3009,-216 3009,-216 3015,-216 3021,-222 3021,-228 3021,-228 3021,-240 3021,-240 3021,-246 3015,-252 3009,-252"/>
<text text-anchor="middle" x="2986" y="-237" font-family="sans" font-size="10.00">run_SCENT</text>
<text text-anchor="middle" x="2986" y="-226" font-family="sans" font-size="10.00">split: 26</text>
</g>
<!-- 4&#45;&gt;34 -->
<g id="edge97" class="edge"><title>4&#45;&gt;34</title>
<path fill="none" stroke="grey" stroke-width="2" d="M2226.51,-302.815C2393.85,-297.572 2788.84,-282.542 2940.67,-251.818"/>
<polygon fill="grey" stroke="grey" points="2941.69,-255.179 2950.74,-249.675 2940.23,-248.332 2941.69,-255.179"/>
</g>
<!-- 35 -->
<g id="node36" class="node"><title>35</title>
<path fill="none" stroke="#56d86b" stroke-width="2" d="M3097,-252C3097,-252 3051,-252 3051,-252 3045,-252 3039,-246 3039,-240 3039,-240 3039,-228 3039,-228 3039,-222 3045,-216 3051,-216 3051,-216 3097,-216 3097,-216 3103,-216 3109,-222 3109,-228 3109,-228 3109,-240 3109,-240 3109,-246 3103,-252 3097,-252"/>
<text text-anchor="middle" x="3074" y="-237" font-family="sans" font-size="10.00">run_SCENT</text>
<text text-anchor="middle" x="3074" y="-226" font-family="sans" font-size="10.00">split: 27</text>
</g>
<!-- 4&#45;&gt;35 -->
<g id="edge98" class="edge"><title>4&#45;&gt;35</title>
<path fill="none" stroke="grey" stroke-width="2" d="M2226.31,-303.416C2407.25,-299.186 2859.16,-285.712 3028.71,-251.8"/>
<polygon fill="grey" stroke="grey" points="3029.68,-255.174 3038.75,-249.696 3028.24,-248.323 3029.68,-255.174"/>
</g>
<!-- 36 -->
<g id="node37" class="node"><title>36</title>
<path fill="none" stroke="#56d86b" stroke-width="2" d="M3185,-252C3185,-252 3139,-252 3139,-252 3133,-252 3127,-246 3127,-240 3127,-240 3127,-228 3127,-228 3127,-222 3133,-216 3139,-216 3139,-216 3185,-216 3185,-216 3191,-216 3197,-222 3197,-228 3197,-228 3197,-240 3197,-240 3197,-246 3191,-252 3185,-252"/>
<text text-anchor="middle" x="3162" y="-237" font-family="sans" font-size="10.00">run_SCENT</text>
<text text-anchor="middle" x="3162" y="-226" font-family="sans" font-size="10.00">split: 28</text>
</g>
<!-- 4&#45;&gt;36 -->
<g id="edge99" class="edge"><title>4&#45;&gt;36</title>
<path fill="none" stroke="grey" stroke-width="2" d="M2226.6,-303.899C2420.78,-300.622 2929.58,-288.882 3116.75,-251.787"/>
<polygon fill="grey" stroke="grey" points="3117.67,-255.171 3126.75,-249.714 3116.25,-248.317 3117.67,-255.171"/>
</g>
<!-- 37 -->
<g id="node38" class="node"><title>37</title>
<path fill="none" stroke="#56d86b" stroke-width="2" d="M3273,-252C3273,-252 3227,-252 3227,-252 3221,-252 3215,-246 3215,-240 3215,-240 3215,-228 3215,-228 3215,-222 3221,-216 3227,-216 3227,-216 3273,-216 3273,-216 3279,-216 3285,-222 3285,-228 3285,-228 3285,-240 3285,-240 3285,-246 3279,-252 3273,-252"/>
<text text-anchor="middle" x="3250" y="-237" font-family="sans" font-size="10.00">run_SCENT</text>
<text text-anchor="middle" x="3250" y="-226" font-family="sans" font-size="10.00">split: 29</text>
</g>
<!-- 4&#45;&gt;37 -->
<g id="edge100" class="edge"><title>4&#45;&gt;37</title>
<path fill="none" stroke="grey" stroke-width="2" d="M2226.62,-304.308C2433.27,-301.948 2999.7,-292.095 3204.69,-251.795"/>
<polygon fill="grey" stroke="grey" points="3205.66,-255.168 3214.75,-249.728 3204.26,-248.311 3205.66,-255.168"/>
</g>
<!-- 38 -->
<g id="node39" class="node"><title>38</title>
<path fill="none" stroke="#56d86b" stroke-width="2" d="M3361,-252C3361,-252 3315,-252 3315,-252 3309,-252 3303,-246 3303,-240 3303,-240 3303,-228 3303,-228 3303,-222 3309,-216 3315,-216 3315,-216 3361,-216 3361,-216 3367,-216 3373,-222 3373,-228 3373,-228 3373,-240 3373,-240 3373,-246 3367,-252 3361,-252"/>
<text text-anchor="middle" x="3338" y="-237" font-family="sans" font-size="10.00">run_SCENT</text>
<text text-anchor="middle" x="3338" y="-226" font-family="sans" font-size="10.00">split: 30</text>
</g>
<!-- 4&#45;&gt;38 -->
<g id="edge101" class="edge"><title>4&#45;&gt;38</title>
<path fill="none" stroke="grey" stroke-width="2" d="M2226.56,-304.655C2445.13,-303.172 3070.04,-295.327 3292.78,-251.774"/>
<polygon fill="grey" stroke="grey" points="3293.66,-255.166 3302.76,-249.74 3292.26,-248.307 3293.66,-255.166"/>
</g>
<!-- 39 -->
<g id="node40" class="node"><title>39</title>
<path fill="none" stroke="#56d86b" stroke-width="2" d="M3449,-252C3449,-252 3403,-252 3403,-252 3397,-252 3391,-246 3391,-240 3391,-240 3391,-228 3391,-228 3391,-222 3397,-216 3403,-216 3403,-216 3449,-216 3449,-216 3455,-216 3461,-222 3461,-228 3461,-228 3461,-240 3461,-240 3461,-246 3455,-252 3449,-252"/>
<text text-anchor="middle" x="3426" y="-237" font-family="sans" font-size="10.00">run_SCENT</text>
<text text-anchor="middle" x="3426" y="-226" font-family="sans" font-size="10.00">split: 31</text>
</g>
<!-- 4&#45;&gt;39 -->
<g id="edge102" class="edge"><title>4&#45;&gt;39</title>
<path fill="none" stroke="grey" stroke-width="2" d="M2226.57,-304.953C2456.62,-304.307 3140,-298.577 3380.67,-251.792"/>
<polygon fill="grey" stroke="grey" points="3381.65,-255.164 3390.76,-249.751 3380.26,-248.303 3381.65,-255.164"/>
</g>
<!-- 40 -->
<g id="node41" class="node"><title>40</title>
<path fill="none" stroke="#56d86b" stroke-width="2" d="M3537,-252C3537,-252 3491,-252 3491,-252 3485,-252 3479,-246 3479,-240 3479,-240 3479,-228 3479,-228 3479,-222 3485,-216 3491,-216 3491,-216 3537,-216 3537,-216 3543,-216 3549,-222 3549,-228 3549,-228 3549,-240 3549,-240 3549,-246 3543,-252 3537,-252"/>
<text text-anchor="middle" x="3514" y="-237" font-family="sans" font-size="10.00">run_SCENT</text>
<text text-anchor="middle" x="3514" y="-226" font-family="sans" font-size="10.00">split: 32</text>
</g>
<!-- 4&#45;&gt;40 -->
<g id="edge103" class="edge"><title>4&#45;&gt;40</title>
<path fill="none" stroke="grey" stroke-width="2" d="M2226.38,-305.212C2467.31,-305.371 3210.05,-301.852 3468.66,-251.792"/>
<polygon fill="grey" stroke="grey" points="3469.65,-255.163 3478.76,-249.76 3468.27,-248.3 3469.65,-255.163"/>
</g>
<!-- 5 -->
<g id="node6" class="node"><title>5</title>
<path fill="none" stroke="#d85656" stroke-width="2" stroke-dasharray="5,2" d="M2199,-396C2199,-396 2101,-396 2101,-396 2095,-396 2089,-390 2089,-384 2089,-384 2089,-372 2089,-372 2089,-366 2095,-360 2101,-360 2101,-360 2199,-360 2199,-360 2205,-360 2211,-366 2211,-372 2211,-372 2211,-384 2211,-384 2211,-390 2205,-396 2199,-396"/>
<text text-anchor="middle" x="2150" y="-375.5" font-family="sans" font-size="10.00">run_bedtools_window</text>
</g>
<!-- 5&#45;&gt;4 -->
<g id="edge67" class="edge"><title>5&#45;&gt;4</title>
<path fill="none" stroke="grey" stroke-width="2" d="M2150,-359.697C2150,-351.983 2150,-342.712 2150,-334.112"/>
<polygon fill="grey" stroke="grey" points="2153.5,-334.104 2150,-324.104 2146.5,-334.104 2153.5,-334.104"/>
</g>
<!-- 6 -->
<g id="node7" class="node"><title>6</title>
<path fill="none" stroke="#70d856" stroke-width="2" stroke-dasharray="5,2" d="M2222,-468C2222,-468 2094,-468 2094,-468 2088,-468 2082,-462 2082,-456 2082,-456 2082,-444 2082,-444 2082,-438 2088,-432 2094,-432 2094,-432 2222,-432 2222,-432 2228,-432 2234,-438 2234,-444 2234,-444 2234,-456 2234,-456 2234,-462 2228,-468 2222,-468"/>
<text text-anchor="middle" x="2158" y="-447.5" font-family="sans" font-size="10.00">annotate_genes_and_peaks</text>
</g>
<!-- 6&#45;&gt;5 -->
<g id="edge70" class="edge"><title>6&#45;&gt;5</title>
<path fill="none" stroke="grey" stroke-width="2" d="M2156.02,-431.697C2155.14,-423.983 2154.08,-414.712 2153.1,-406.112"/>
<polygon fill="grey" stroke="grey" points="2156.57,-405.642 2151.95,-396.104 2149.61,-406.437 2156.57,-405.642"/>
</g>
<!-- 7 -->
<g id="node8" class="node"><title>7</title>
<path fill="none" stroke="#d88556" stroke-width="2" stroke-dasharray="5,2" d="M2104.25,-540C2104.25,-540 2003.75,-540 2003.75,-540 1997.75,-540 1991.75,-534 1991.75,-528 1991.75,-528 1991.75,-516 1991.75,-516 1991.75,-510 1997.75,-504 2003.75,-504 2003.75,-504 2104.25,-504 2104.25,-504 2110.25,-504 2116.25,-510 2116.25,-516 2116.25,-516 2116.25,-528 2116.25,-528 2116.25,-534 2110.25,-540 2104.25,-540"/>
<text text-anchor="middle" x="2054" y="-519.5" font-family="sans" font-size="10.00">get_genes_and_peaks</text>
</g>
<!-- 7&#45;&gt;4 -->
<g id="edge68" class="edge"><title>7&#45;&gt;4</title>
<path fill="none" stroke="grey" stroke-width="2" d="M2052.77,-503.607C2051.38,-472.457 2052.28,-406.102 2080,-360 2087.14,-348.133 2098.02,-338.014 2109.1,-329.897"/>
<polygon fill="grey" stroke="grey" points="2111.29,-332.636 2117.55,-324.085 2107.32,-326.87 2111.29,-332.636"/>
</g>
<!-- 7&#45;&gt;6 -->
<g id="edge71" class="edge"><title>7&#45;&gt;6</title>
<path fill="none" stroke="grey" stroke-width="2" d="M2079.44,-503.876C2092.79,-494.893 2109.32,-483.763 2123.78,-474.034"/>
<polygon fill="grey" stroke="grey" points="2126.12,-476.677 2132.46,-468.19 2122.21,-470.87 2126.12,-476.677"/>
</g>
<!-- 8 -->
<g id="node9" class="node"><title>8</title>
<path fill="none" stroke="#d8b456" stroke-width="2" stroke-dasharray="5,2" d="M2249.25,-540C2249.25,-540 2146.75,-540 2146.75,-540 2140.75,-540 2134.75,-534 2134.75,-528 2134.75,-528 2134.75,-516 2134.75,-516 2134.75,-510 2140.75,-504 2146.75,-504 2146.75,-504 2249.25,-504 2249.25,-504 2255.25,-504 2261.25,-510 2261.25,-516 2261.25,-516 2261.25,-528 2261.25,-528 2261.25,-534 2255.25,-540 2249.25,-540"/>
<text text-anchor="middle" x="2198" y="-519.5" font-family="sans" font-size="10.00">download_annotations</text>
</g>
<!-- 8&#45;&gt;6 -->
<g id="edge72" class="edge"><title>8&#45;&gt;6</title>
<path fill="none" stroke="grey" stroke-width="2" d="M2188.11,-503.697C2183.51,-495.644 2177.94,-485.894 2172.85,-476.982"/>
<polygon fill="grey" stroke="grey" points="2175.77,-475.05 2167.77,-468.104 2169.7,-478.523 2175.77,-475.05"/>
</g>
<!-- 9 -->
<g id="node10" class="node"><title>9</title>
<path fill="none" stroke="#56d8c9" stroke-width="2" stroke-dasharray="5,2" d="M2366.25,-396C2366.25,-396 2241.75,-396 2241.75,-396 2235.75,-396 2229.75,-390 2229.75,-384 2229.75,-384 2229.75,-372 2229.75,-372 2229.75,-366 2235.75,-360 2241.75,-360 2241.75,-360 2366.25,-360 2366.25,-360 2372.25,-360 2378.25,-366 2378.25,-372 2378.25,-372 2378.25,-384 2378.25,-384 2378.25,-390 2372.25,-396 2366.25,-396"/>
<text text-anchor="middle" x="2304" y="-375.5" font-family="sans" font-size="10.00">find_highly_variable_genes</text>
</g>
<!-- 9&#45;&gt;4 -->
<g id="edge69" class="edge"><title>9&#45;&gt;4</title>
<path fill="none" stroke="grey" stroke-width="2" d="M2266.33,-359.876C2245.37,-350.349 2219.1,-338.407 2196.82,-328.283"/>
<polygon fill="grey" stroke="grey" points="2198.1,-325.02 2187.55,-324.068 2195.21,-331.393 2198.1,-325.02"/>
</g>
<!-- 10&#45;&gt;2 -->
<g id="edge35" class="edge"><title>10&#45;&gt;2</title>
<path fill="none" stroke="grey" stroke-width="2" d="M909.24,-218.249C912.17,-217.372 915.114,-216.603 918,-216 1143.25,-168.968 1858.89,-163.552 2082.54,-163.023"/>
<polygon fill="grey" stroke="grey" points="2082.82,-166.523 2092.81,-163.002 2082.81,-159.523 2082.82,-166.523"/>
</g>
<!-- 11&#45;&gt;2 -->
<g id="edge36" class="edge"><title>11&#45;&gt;2</title>
<path fill="none" stroke="grey" stroke-width="2" d="M997.243,-218.26C1000.17,-217.38 1003.12,-216.607 1006,-216 1213.58,-172.3 1869.91,-164.628 2082.69,-163.284"/>
<polygon fill="grey" stroke="grey" points="2082.81,-166.784 2092.79,-163.223 2082.77,-159.784 2082.81,-166.784"/>
</g>
<!-- 12&#45;&gt;2 -->
<g id="edge37" class="edge"><title>12&#45;&gt;2</title>
<path fill="none" stroke="grey" stroke-width="2" d="M1085.25,-218.272C1088.17,-217.39 1091.12,-216.613 1094,-216 1283.94,-175.63 1881.2,-165.788 2082.78,-163.587"/>
<polygon fill="grey" stroke="grey" points="2082.97,-167.085 2092.94,-163.479 2082.9,-160.086 2082.97,-167.085"/>
</g>
<!-- 13&#45;&gt;2 -->
<g id="edge38" class="edge"><title>13&#45;&gt;2</title>
<path fill="none" stroke="grey" stroke-width="2" d="M1173.25,-218.286C1176.18,-217.401 1179.12,-216.619 1182,-216 1354.28,-178.974 1892.37,-167.059 2082.57,-163.949"/>
<polygon fill="grey" stroke="grey" points="2082.77,-167.446 2092.71,-163.786 2082.66,-160.447 2082.77,-167.446"/>
</g>
<!-- 14&#45;&gt;2 -->
<g id="edge39" class="edge"><title>14&#45;&gt;2</title>
<path fill="none" stroke="grey" stroke-width="2" d="M1261.25,-218.304C1264.18,-217.414 1267.12,-216.627 1270,-216 1424.86,-182.275 1905.1,-168.43 2082.9,-164.371"/>
<polygon fill="grey" stroke="grey" points="2082.99,-167.87 2092.91,-164.146 2082.84,-160.872 2082.99,-167.87"/>
</g>
<!-- 15&#45;&gt;2 -->
<g id="edge40" class="edge"><title>15&#45;&gt;2</title>
<path fill="none" stroke="grey" stroke-width="2" d="M1349.26,-218.325C1352.18,-217.431 1355.12,-216.637 1358,-216 1495.39,-185.599 1917.61,-169.973 2082.77,-164.896"/>
<polygon fill="grey" stroke="grey" points="2082.92,-168.394 2092.81,-164.591 2082.7,-161.397 2082.92,-168.394"/>
</g>
<!-- 16&#45;&gt;2 -->
<g id="edge41" class="edge"><title>16&#45;&gt;2</title>
<path fill="none" stroke="grey" stroke-width="2" d="M1437.26,-218.352C1440.19,-217.451 1443.12,-216.649 1446,-216 1566.09,-188.903 1931.21,-171.697 2082.85,-165.544"/>
<polygon fill="grey" stroke="grey" points="2083.11,-169.037 2092.96,-165.138 2082.83,-162.042 2083.11,-169.037"/>
</g>
<!-- 17&#45;&gt;2 -->
<g id="edge42" class="edge"><title>17&#45;&gt;2</title>
<path fill="none" stroke="grey" stroke-width="2" d="M1525.27,-218.386C1528.19,-217.478 1531.13,-216.664 1534,-216 1729.67,-170.75 1968.37,-163.332 2082.68,-162.618"/>
<polygon fill="grey" stroke="grey" points="2082.7,-166.118 2092.69,-162.57 2082.67,-159.118 2082.7,-166.118"/>
</g>
<!-- 18&#45;&gt;2 -->
<g id="edge43" class="edge"><title>18&#45;&gt;2</title>
<path fill="none" stroke="grey" stroke-width="2" d="M1613.28,-218.431C1616.2,-217.513 1619.13,-216.685 1622,-216 1784.44,-177.217 1981.57,-166.784 2082.82,-163.998"/>
<polygon fill="grey" stroke="grey" points="2083,-167.494 2092.91,-163.737 2082.82,-160.497 2083,-167.494"/>
</g>
<!-- 19&#45;&gt;2 -->
<g id="edge44" class="edge"><title>19&#45;&gt;2</title>
<path fill="none" stroke="grey" stroke-width="2" d="M1701.3,-218.494C1704.21,-217.562 1707.14,-216.713 1710,-216 1839.62,-183.69 1995.81,-170.827 2082.91,-165.895"/>
<polygon fill="grey" stroke="grey" points="2083.13,-169.388 2092.92,-165.346 2082.75,-162.399 2083.13,-169.388"/>
</g>
<!-- 20&#45;&gt;2 -->
<g id="edge45" class="edge"><title>20&#45;&gt;2</title>
<path fill="none" stroke="grey" stroke-width="2" d="M1789.32,-218.587C1792.23,-217.634 1795.15,-216.755 1798,-216 1895.22,-190.234 2011.09,-175.808 2082.61,-168.718"/>
<polygon fill="grey" stroke="grey" points="2083.21,-172.175 2092.83,-167.724 2082.54,-165.208 2083.21,-172.175"/>
</g>
<!-- 21&#45;&gt;2 -->
<g id="edge46" class="edge"><title>21&#45;&gt;2</title>
<path fill="none" stroke="grey" stroke-width="2" d="M1877.36,-218.74C1880.26,-217.753 1883.17,-216.824 1886,-216 1951.88,-196.811 2029.01,-182.203 2082.83,-173.23"/>
<polygon fill="grey" stroke="grey" points="2083.63,-176.645 2092.93,-171.566 2082.5,-169.738 2083.63,-176.645"/>
</g>
<!-- 22&#45;&gt;2 -->
<g id="edge47" class="edge"><title>22&#45;&gt;2</title>
<path fill="none" stroke="grey" stroke-width="2" d="M1965.46,-219.034C1968.34,-217.981 1971.21,-216.957 1974,-216 2009.7,-203.749 2049.97,-191.506 2082.98,-181.879"/>
<polygon fill="grey" stroke="grey" points="2084.35,-185.126 2092.98,-178.977 2082.4,-178.403 2084.35,-185.126"/>
</g>
<!-- 23&#45;&gt;2 -->
<g id="edge48" class="edge"><title>23&#45;&gt;2</title>
<path fill="none" stroke="grey" stroke-width="2" d="M2050.29,-215.876C2067.87,-206.554 2089.81,-194.919 2108.63,-184.939"/>
<polygon fill="grey" stroke="grey" points="2110.39,-187.967 2117.59,-180.19 2107.11,-181.783 2110.39,-187.967"/>
</g>
<!-- 24&#45;&gt;2 -->
<g id="edge49" class="edge"><title>24&#45;&gt;2</title>
<path fill="none" stroke="grey" stroke-width="2" d="M2116.88,-215.697C2121.99,-207.559 2128.2,-197.689 2133.84,-188.701"/>
<polygon fill="grey" stroke="grey" points="2136.89,-190.433 2139.25,-180.104 2130.96,-186.708 2136.89,-190.433"/>
</g>
<!-- 25&#45;&gt;2 -->
<g id="edge50" class="edge"><title>25&#45;&gt;2</title>
<path fill="none" stroke="grey" stroke-width="2" d="M2183.12,-215.697C2178.01,-207.559 2171.8,-197.689 2166.16,-188.701"/>
<polygon fill="grey" stroke="grey" points="2169.04,-186.708 2160.75,-180.104 2163.11,-190.433 2169.04,-186.708"/>
</g>
<!-- 26&#45;&gt;2 -->
<g id="edge51" class="edge"><title>26&#45;&gt;2</title>
<path fill="none" stroke="grey" stroke-width="2" d="M2249.71,-215.876C2232.13,-206.554 2210.19,-194.919 2191.37,-184.939"/>
<polygon fill="grey" stroke="grey" points="2192.89,-181.783 2182.41,-180.19 2189.61,-187.967 2192.89,-181.783"/>
</g>
<!-- 27&#45;&gt;2 -->
<g id="edge52" class="edge"><title>27&#45;&gt;2</title>
<path fill="none" stroke="grey" stroke-width="2" d="M2334.54,-219.034C2331.66,-217.981 2328.79,-216.957 2326,-216 2290.3,-203.749 2250.03,-191.506 2217.02,-181.879"/>
<polygon fill="grey" stroke="grey" points="2217.6,-178.403 2207.02,-178.977 2215.65,-185.126 2217.6,-178.403"/>
</g>
<!-- 28&#45;&gt;2 -->
<g id="edge53" class="edge"><title>28&#45;&gt;2</title>
<path fill="none" stroke="grey" stroke-width="2" d="M2422.64,-218.74C2419.74,-217.753 2416.83,-216.824 2414,-216 2348.12,-196.811 2270.99,-182.203 2217.17,-173.23"/>
<polygon fill="grey" stroke="grey" points="2217.5,-169.738 2207.07,-171.566 2216.37,-176.645 2217.5,-169.738"/>
</g>
<!-- 29&#45;&gt;2 -->
<g id="edge54" class="edge"><title>29&#45;&gt;2</title>
<path fill="none" stroke="grey" stroke-width="2" d="M2510.68,-218.587C2507.77,-217.634 2504.85,-216.755 2502,-216 2404.78,-190.234 2288.91,-175.808 2217.39,-168.718"/>
<polygon fill="grey" stroke="grey" points="2217.46,-165.208 2207.17,-167.724 2216.79,-172.175 2217.46,-165.208"/>
</g>
<!-- 30&#45;&gt;2 -->
<g id="edge55" class="edge"><title>30&#45;&gt;2</title>
<path fill="none" stroke="grey" stroke-width="2" d="M2598.7,-218.494C2595.79,-217.562 2592.86,-216.713 2590,-216 2460.38,-183.69 2304.19,-170.827 2217.09,-165.895"/>
<polygon fill="grey" stroke="grey" points="2217.25,-162.399 2207.08,-165.346 2216.87,-169.388 2217.25,-162.399"/>
</g>
<!-- 31&#45;&gt;2 -->
<g id="edge56" class="edge"><title>31&#45;&gt;2</title>
<path fill="none" stroke="grey" stroke-width="2" d="M2686.72,-218.431C2683.8,-217.513 2680.87,-216.685 2678,-216 2515.56,-177.217 2318.43,-166.784 2217.18,-163.998"/>
<polygon fill="grey" stroke="grey" points="2217.18,-160.497 2207.09,-163.737 2217,-167.494 2217.18,-160.497"/>
</g>
<!-- 32&#45;&gt;2 -->
<g id="edge57" class="edge"><title>32&#45;&gt;2</title>
<path fill="none" stroke="grey" stroke-width="2" d="M2774.73,-218.386C2771.81,-217.478 2768.87,-216.664 2766,-216 2570.33,-170.75 2331.63,-163.332 2217.32,-162.618"/>
<polygon fill="grey" stroke="grey" points="2217.33,-159.118 2207.31,-162.57 2217.3,-166.118 2217.33,-159.118"/>
</g>
<!-- 33&#45;&gt;2 -->
<g id="edge58" class="edge"><title>33&#45;&gt;2</title>
<path fill="none" stroke="grey" stroke-width="2" d="M2862.74,-218.352C2859.81,-217.451 2856.88,-216.649 2854,-216 2733.91,-188.903 2368.79,-171.697 2217.15,-165.544"/>
<polygon fill="grey" stroke="grey" points="2217.17,-162.042 2207.04,-165.138 2216.89,-169.037 2217.17,-162.042"/>
</g>
<!-- 34&#45;&gt;2 -->
<g id="edge59" class="edge"><title>34&#45;&gt;2</title>
<path fill="none" stroke="grey" stroke-width="2" d="M2950.74,-218.325C2947.82,-217.431 2944.88,-216.637 2942,-216 2804.61,-185.599 2382.39,-169.973 2217.23,-164.896"/>
<polygon fill="grey" stroke="grey" points="2217.3,-161.397 2207.19,-164.591 2217.08,-168.394 2217.3,-161.397"/>
</g>
<!-- 35&#45;&gt;2 -->
<g id="edge60" class="edge"><title>35&#45;&gt;2</title>
<path fill="none" stroke="grey" stroke-width="2" d="M3038.75,-218.304C3035.82,-217.414 3032.88,-216.627 3030,-216 2875.14,-182.275 2394.9,-168.43 2217.1,-164.371"/>
<polygon fill="grey" stroke="grey" points="2217.16,-160.872 2207.09,-164.146 2217.01,-167.87 2217.16,-160.872"/>
</g>
<!-- 36&#45;&gt;2 -->
<g id="edge61" class="edge"><title>36&#45;&gt;2</title>
<path fill="none" stroke="grey" stroke-width="2" d="M3126.75,-218.286C3123.82,-217.401 3120.88,-216.619 3118,-216 2945.72,-178.974 2407.63,-167.059 2217.43,-163.949"/>
<polygon fill="grey" stroke="grey" points="2217.34,-160.447 2207.29,-163.786 2217.23,-167.446 2217.34,-160.447"/>
</g>
<!-- 37&#45;&gt;2 -->
<g id="edge62" class="edge"><title>37&#45;&gt;2</title>
<path fill="none" stroke="grey" stroke-width="2" d="M3214.75,-218.272C3211.83,-217.39 3208.88,-216.613 3206,-216 3016.06,-175.63 2418.8,-165.788 2217.22,-163.587"/>
<polygon fill="grey" stroke="grey" points="2217.1,-160.086 2207.06,-163.479 2217.03,-167.085 2217.1,-160.086"/>
</g>
<!-- 38&#45;&gt;2 -->
<g id="edge63" class="edge"><title>38&#45;&gt;2</title>
<path fill="none" stroke="grey" stroke-width="2" d="M3302.76,-218.26C3299.83,-217.38 3296.88,-216.607 3294,-216 3086.42,-172.3 2430.09,-164.628 2217.31,-163.284"/>
<polygon fill="grey" stroke="grey" points="2217.23,-159.784 2207.21,-163.223 2217.19,-166.784 2217.23,-159.784"/>
</g>
<!-- 39&#45;&gt;2 -->
<g id="edge64" class="edge"><title>39&#45;&gt;2</title>
<path fill="none" stroke="grey" stroke-width="2" d="M3390.76,-218.249C3387.83,-217.372 3384.89,-216.603 3382,-216 3156.75,-168.968 2441.11,-163.552 2217.46,-163.023"/>
<polygon fill="grey" stroke="grey" points="2217.19,-159.523 2207.19,-163.002 2217.18,-166.523 2217.19,-159.523"/>
</g>
<!-- 40&#45;&gt;2 -->
<g id="edge65" class="edge"><title>40&#45;&gt;2</title>
<path fill="none" stroke="grey" stroke-width="2" d="M3478.76,-218.24C3475.83,-217.365 3472.89,-216.598 3470,-216 3226.86,-165.595 2450.68,-162.54 2217.12,-162.797"/>
<polygon fill="grey" stroke="grey" points="2217.06,-159.297 2207.06,-162.81 2217.07,-166.297 2217.06,-159.297"/>
</g>
<!-- 41&#45;&gt;0 -->
<g id="edge2" class="edge"><title>41&#45;&gt;0</title>
<path fill="none" stroke="grey" stroke-width="2" d="M251.315,-73.3982C254.241,-72.8689 257.147,-72.3969 260,-72 625.311,-21.1673 1805.65,-18.7385 2088.62,-18.9037"/>
<polygon fill="grey" stroke="grey" points="2088.69,-22.4037 2098.69,-18.911 2088.7,-15.4037 2088.69,-22.4037"/>
</g>
<!-- 42&#45;&gt;0 -->
<g id="edge3" class="edge"><title>42&#45;&gt;0</title>
<path fill="none" stroke="grey" stroke-width="2" d="M386.316,-73.4058C389.241,-72.8744 392.148,-72.4 395,-72 732.344,-24.6883 1818.34,-19.5901 2088.64,-19.0582"/>
<polygon fill="grey" stroke="grey" points="2088.67,-22.5582 2098.66,-19.0398 2088.65,-15.5582 2088.67,-22.5582"/>
</g>
<!-- 43&#45;&gt;0 -->
<g id="edge4" class="edge"><title>43&#45;&gt;0</title>
<path fill="none" stroke="grey" stroke-width="2" d="M521.318,-73.4146C524.242,-72.8809 527.148,-72.4036 530,-72 839.338,-28.2195 1830.83,-20.5132 2088.39,-19.2392"/>
<polygon fill="grey" stroke="grey" points="2088.69,-22.7379 2098.68,-19.1899 2088.66,-15.738 2088.69,-22.7379"/>
</g>
<!-- 44&#45;&gt;0 -->
<g id="edge5" class="edge"><title>44&#45;&gt;0</title>
<path fill="none" stroke="grey" stroke-width="2" d="M656.319,-73.4251C659.244,-72.8886 662.149,-72.4078 665,-72 946.5,-31.7328 1844.45,-21.5139 2088.36,-19.4526"/>
<polygon fill="grey" stroke="grey" points="2088.49,-22.9517 2098.46,-19.3688 2088.43,-15.952 2088.49,-22.9517"/>
</g>
<!-- 45&#45;&gt;0 -->
<g id="edge6" class="edge"><title>45&#45;&gt;0</title>
<path fill="none" stroke="grey" stroke-width="2" d="M791.321,-73.4376C794.245,-72.8978 797.15,-72.4129 800,-72 1053.77,-35.2383 1858.79,-22.6108 2088.35,-19.7081"/>
<polygon fill="grey" stroke="grey" points="2088.57,-23.2057 2098.52,-19.5811 2088.48,-16.2063 2088.57,-23.2057"/>
</g>
<!-- 46&#45;&gt;0 -->
<g id="edge7" class="edge"><title>46&#45;&gt;0</title>
<path fill="none" stroke="grey" stroke-width="2" d="M926.323,-73.4529C929.246,-72.9091 932.151,-72.4191 935,-72 1161.21,-38.7279 1874.28,-23.8191 2088.53,-20.0164"/>
<polygon fill="grey" stroke="grey" points="2088.71,-23.5138 2098.65,-19.8384 2088.59,-16.5149 2088.71,-23.5138"/>
</g>
<!-- 47&#45;&gt;0 -->
<g id="edge8" class="edge"><title>47&#45;&gt;0</title>
<path fill="none" stroke="grey" stroke-width="2" d="M1061.33,-73.472C1064.25,-72.9231 1067.15,-72.4269 1070,-72 1268.69,-42.2227 1890.14,-25.1882 2088.5,-20.4046"/>
<polygon fill="grey" stroke="grey" points="2088.82,-23.898 2098.73,-20.1596 2088.65,-16.9 2088.82,-23.898"/>
</g>
<!-- 48&#45;&gt;0 -->
<g id="edge9" class="edge"><title>48&#45;&gt;0</title>
<path fill="none" stroke="grey" stroke-width="2" d="M1196.33,-73.4965C1199.25,-72.9412 1202.15,-72.4368 1205,-72 1535.44,-21.2955 1937.52,-17.7091 2088.66,-18.3733"/>
<polygon fill="grey" stroke="grey" points="2088.66,-21.8733 2098.68,-18.4253 2088.7,-14.8734 2088.66,-21.8733"/>
</g>
<!-- 49&#45;&gt;0 -->
<g id="edge10" class="edge"><title>49&#45;&gt;0</title>
<path fill="none" stroke="grey" stroke-width="2" d="M1331.33,-73.5292C1334.26,-72.9652 1337.16,-72.4501 1340,-72 1616.75,-28.2149 1952.2,-20.4723 2088.24,-19.198"/>
<polygon fill="grey" stroke="grey" points="2088.49,-22.6961 2098.46,-19.111 2088.43,-15.6963 2088.49,-22.6961"/>
</g>
<!-- 50&#45;&gt;0 -->
<g id="edge11" class="edge"><title>50&#45;&gt;0</title>
<path fill="none" stroke="grey" stroke-width="2" d="M1466.34,-73.5748C1469.26,-72.9987 1472.16,-72.4686 1475,-72 1698.99,-35.0662 1969.17,-23.6949 2088.38,-20.3371"/>
<polygon fill="grey" stroke="grey" points="2088.51,-23.8348 2098.41,-20.0635 2088.32,-16.8375 2088.51,-23.8348"/>
</g>
<!-- 51&#45;&gt;0 -->
<g id="edge12" class="edge"><title>51&#45;&gt;0</title>
<path fill="none" stroke="grey" stroke-width="2" d="M1601.35,-73.6429C1604.27,-73.0488 1607.16,-72.4962 1610,-72 1782.02,-41.9114 1988.08,-27.6072 2088.67,-22.0052"/>
<polygon fill="grey" stroke="grey" points="2088.86,-25.5001 2098.65,-21.4585 2088.48,-18.5105 2088.86,-25.5001"/>
</g>
<!-- 52&#45;&gt;0 -->
<g id="edge13" class="edge"><title>52&#45;&gt;0</title>
<path fill="none" stroke="grey" stroke-width="2" d="M1736.37,-73.7556C1739.28,-73.1317 1742.17,-72.542 1745,-72 1865.64,-48.8851 2008.45,-32.7852 2088.19,-24.7903"/>
<polygon fill="grey" stroke="grey" points="2088.94,-28.2335 2098.54,-23.7625 2088.25,-21.2677 2088.94,-28.2335"/>
</g>
<!-- 53&#45;&gt;0 -->
<g id="edge14" class="edge"><title>53&#45;&gt;0</title>
<path fill="none" stroke="grey" stroke-width="2" d="M1871.42,-73.9769C1874.32,-73.2945 1877.19,-72.6318 1880,-72 1951.3,-55.9697 2033.8,-40.172 2088.65,-30.0532"/>
<polygon fill="grey" stroke="grey" points="2089.36,-33.4815 2098.57,-28.2312 2088.1,-26.5969 2089.36,-33.4815"/>
</g>
<!-- 54&#45;&gt;0 -->
<g id="edge15" class="edge"><title>54&#45;&gt;0</title>
<path fill="none" stroke="grey" stroke-width="2" d="M1997.16,-71.9656C2025.5,-62.1425 2061.32,-49.7291 2091.16,-39.3891"/>
<polygon fill="grey" stroke="grey" points="2092.32,-42.6923 2100.62,-36.1108 2090.03,-36.0781 2092.32,-42.6923"/>
</g>
<!-- 55&#45;&gt;0 -->
<g id="edge16" class="edge"><title>55&#45;&gt;0</title>
<path fill="none" stroke="grey" stroke-width="2" d="M2099.56,-71.6966C2107.68,-63.2198 2117.59,-52.8636 2126.47,-43.5826"/>
<polygon fill="grey" stroke="grey" points="2129.24,-45.7486 2133.63,-36.1043 2124.19,-40.9084 2129.24,-45.7486"/>
</g>
<!-- 56&#45;&gt;0 -->
<g id="edge17" class="edge"><title>56&#45;&gt;0</title>
<path fill="none" stroke="grey" stroke-width="2" d="M2201.19,-71.6966C2192.87,-63.135 2182.69,-52.6562 2173.61,-43.3045"/>
<polygon fill="grey" stroke="grey" points="2176.09,-40.8384 2166.62,-36.1043 2171.07,-45.7159 2176.09,-40.8384"/>
</g>
<!-- 57&#45;&gt;0 -->
<g id="edge18" class="edge"><title>57&#45;&gt;0</title>
<path fill="none" stroke="grey" stroke-width="2" d="M2303.6,-71.9656C2275.11,-62.1425 2239.11,-49.7291 2209.13,-39.3891"/>
<polygon fill="grey" stroke="grey" points="2210.22,-36.062 2199.62,-36.1108 2207.93,-42.6796 2210.22,-36.062"/>
</g>
<!-- 58&#45;&gt;0 -->
<g id="edge19" class="edge"><title>58&#45;&gt;0</title>
<path fill="none" stroke="grey" stroke-width="2" d="M2429.44,-74.158C2426.25,-73.4127 2423.09,-72.6886 2420,-72 2348.67,-56.0948 2266.18,-40.2727 2211.33,-30.114"/>
<polygon fill="grey" stroke="grey" points="2211.89,-26.6581 2201.42,-28.2843 2210.62,-33.5418 2211.89,-26.6581"/>
</g>
<!-- 59&#45;&gt;0 -->
<g id="edge20" class="edge"><title>59&#45;&gt;0</title>
<path fill="none" stroke="grey" stroke-width="2" d="M2564.49,-73.919C2561.29,-73.2354 2558.11,-72.5899 2555,-72 2434.32,-49.0968 2291.52,-32.9221 2211.8,-24.8567"/>
<polygon fill="grey" stroke="grey" points="2211.75,-21.3342 2201.45,-23.8195 2211.05,-28.2993 2211.75,-21.3342"/>
</g>
<!-- 60&#45;&gt;0 -->
<g id="edge21" class="edge"><title>60&#45;&gt;0</title>
<path fill="none" stroke="grey" stroke-width="2" d="M2699.51,-73.7973C2696.3,-73.1451 2693.12,-72.5397 2690,-72 2518.1,-42.2434 2312.31,-27.8029 2211.62,-22.0914"/>
<polygon fill="grey" stroke="grey" points="2211.52,-18.58 2201.34,-21.5175 2211.13,-25.5691 2211.52,-18.58"/>
</g>
<!-- 61&#45;&gt;0 -->
<g id="edge22" class="edge"><title>61&#45;&gt;0</title>
<path fill="none" stroke="grey" stroke-width="2" d="M2834.52,-73.7237C2831.31,-73.0905 2828.12,-72.5093 2825,-72 2600.95,-35.4593 2330.8,-23.888 2211.61,-20.4082"/>
<polygon fill="grey" stroke="grey" points="2211.67,-16.9087 2201.58,-20.1241 2211.48,-23.9059 2211.67,-16.9087"/>
</g>
<!-- 62&#45;&gt;0 -->
<g id="edge23" class="edge"><title>62&#45;&gt;0</title>
<path fill="none" stroke="grey" stroke-width="2" d="M2969.53,-73.6744C2966.32,-73.0539 2963.13,-72.4889 2960,-72 2683.18,-28.7004 2347.77,-20.6892 2211.75,-19.2707"/>
<polygon fill="grey" stroke="grey" points="2211.56,-15.7688 2201.53,-19.1727 2211.49,-22.7685 2211.56,-15.7688"/>
</g>
<!-- 63&#45;&gt;0 -->
<g id="edge24" class="edge"><title>63&#45;&gt;0</title>
<path fill="none" stroke="grey" stroke-width="2" d="M3104.54,-73.6392C3101.32,-73.0278 3098.13,-72.4744 3095,-72 2764.47,-21.8753 2362.45,-17.9472 2211.33,-18.4466"/>
<polygon fill="grey" stroke="grey" points="2211.3,-14.9466 2201.31,-18.4875 2211.33,-21.9466 2211.3,-14.9466"/>
</g>
<!-- 64&#45;&gt;0 -->
<g id="edge25" class="edge"><title>64&#45;&gt;0</title>
<path fill="none" stroke="grey" stroke-width="2" d="M3239.54,-73.6127C3236.33,-73.0081 3233.13,-72.4634 3230,-72 3031.26,-42.5713 2409.84,-25.3025 2211.5,-20.4327"/>
<polygon fill="grey" stroke="grey" points="2211.35,-16.928 2201.26,-20.1832 2211.18,-23.9259 2211.35,-16.928"/>
</g>
<!-- 65&#45;&gt;0 -->
<g id="edge26" class="edge"><title>65&#45;&gt;0</title>
<path fill="none" stroke="grey" stroke-width="2" d="M3374.54,-73.5921C3371.33,-72.9928 3368.13,-72.4549 3365,-72 3138.74,-39.1248 2425.7,-23.9413 2211.47,-20.0446"/>
<polygon fill="grey" stroke="grey" points="2211.41,-16.5431 2201.35,-19.8622 2211.28,-23.5419 2211.41,-16.5431"/>
</g>
<!-- 66&#45;&gt;0 -->
<g id="edge27" class="edge"><title>66&#45;&gt;0</title>
<path fill="none" stroke="grey" stroke-width="2" d="M3509.55,-73.5756C3506.33,-72.9805 3503.13,-72.4481 3500,-72 3246.17,-35.6836 2441.19,-22.7408 2211.65,-19.7365"/>
<polygon fill="grey" stroke="grey" points="2211.52,-16.2347 2201.47,-19.605 2211.43,-23.2341 2211.52,-16.2347"/>
</g>
<!-- 67&#45;&gt;0 -->
<g id="edge28" class="edge"><title>67&#45;&gt;0</title>
<path fill="none" stroke="grey" stroke-width="2" d="M3644.55,-73.5621C3641.33,-72.9705 3638.13,-72.4425 3635,-72 3353.43,-32.2267 2455.53,-21.6511 2211.64,-19.4812"/>
<polygon fill="grey" stroke="grey" points="2211.57,-15.9805 2201.54,-19.3928 2211.51,-22.9803 2211.57,-15.9805"/>
</g>
<!-- 68&#45;&gt;0 -->
<g id="edge29" class="edge"><title>68&#45;&gt;0</title>
<path fill="none" stroke="grey" stroke-width="2" d="M3779.55,-73.5508C3776.33,-72.9622 3773.13,-72.4379 3770,-72 3460.59,-28.7622 2469.15,-20.6572 2211.6,-19.2679"/>
<polygon fill="grey" stroke="grey" points="2211.34,-15.7665 2201.32,-19.2139 2211.3,-22.7664 2211.34,-15.7665"/>
</g>
<!-- 69&#45;&gt;0 -->
<g id="edge30" class="edge"><title>69&#45;&gt;0</title>
<path fill="none" stroke="grey" stroke-width="2" d="M3914.55,-73.5412C3911.33,-72.9551 3908.13,-72.4339 3905,-72 3567.57,-25.2802 2481.64,-19.7404 2211.36,-19.0868"/>
<polygon fill="grey" stroke="grey" points="2211.35,-15.5868 2201.34,-19.0639 2211.33,-22.5868 2211.35,-15.5868"/>
</g>
<!-- 70&#45;&gt;0 -->
<g id="edge31" class="edge"><title>70&#45;&gt;0</title>
<path fill="none" stroke="grey" stroke-width="2" d="M4049.55,-73.5331C4046.33,-72.949 4043.13,-72.4306 4040,-72 3674.6,-21.8083 2494.33,-18.8951 2211.38,-18.9324"/>
<polygon fill="grey" stroke="grey" points="2211.3,-15.4324 2201.3,-18.9351 2211.3,-22.4324 2211.3,-15.4324"/>
</g>
<!-- 71&#45;&gt;0 -->
<g id="edge32" class="edge"><title>71&#45;&gt;0</title>
<path fill="none" stroke="grey" stroke-width="2" d="M4184.55,-73.526C4181.33,-72.9437 4178.13,-72.4276 4175,-72 3781.55,-18.3303 2506.52,-18.1056 2211.38,-18.7984"/>
<polygon fill="grey" stroke="grey" points="2211.29,-15.2986 2201.3,-18.8234 2211.31,-22.2985 2211.29,-15.2986"/>
</g>
</g>
</svg>
